<mxfile host="app.diagrams.net" modified="2023-10-15T21:20:05.634Z" agent="Mozilla/5.0 (Windows NT 10.0; Win64; x64) AppleWebKit/537.36 (KHTML, like Gecko) Chrome/118.0.0.0 Safari/537.36" etag="fRLoL3v6hQC6WZnpVkAV" version="22.0.4" type="device">
  <diagram id="R2lEEEUBdFMjLlhIrx00" name="Page-1">
    <mxGraphModel dx="2625" dy="1355" grid="0" gridSize="10" guides="1" tooltips="1" connect="1" arrows="1" fold="1" page="1" pageScale="1" pageWidth="850" pageHeight="1100" math="0" shadow="0" extFonts="Permanent Marker^https://fonts.googleapis.com/css?family=Permanent+Marker">
      <root>
        <mxCell id="0" />
        <mxCell id="1" parent="0" />
        <mxCell id="-ADNXhnUNOLjZ2h_mKhe-1" value="Task" style="rounded=0;whiteSpace=wrap;html=1;fontSize=16;" vertex="1" parent="1">
          <mxGeometry x="1255" y="102" width="120" height="60" as="geometry" />
        </mxCell>
        <mxCell id="-ADNXhnUNOLjZ2h_mKhe-2" value="Holidays" style="rounded=0;whiteSpace=wrap;html=1;fontSize=16;" vertex="1" parent="1">
          <mxGeometry x="1664" y="102" width="120" height="60" as="geometry" />
        </mxCell>
        <mxCell id="-ADNXhnUNOLjZ2h_mKhe-3" value="User" style="rounded=0;whiteSpace=wrap;html=1;fontSize=16;" vertex="1" parent="1">
          <mxGeometry x="1186" y="244" width="120" height="60" as="geometry" />
        </mxCell>
        <mxCell id="-ADNXhnUNOLjZ2h_mKhe-4" value="TaskType" style="rounded=0;whiteSpace=wrap;html=1;fontSize=16;" vertex="1" parent="1">
          <mxGeometry x="1457" y="102" width="120" height="60" as="geometry" />
        </mxCell>
        <mxCell id="-ADNXhnUNOLjZ2h_mKhe-5" value="" style="edgeStyle=orthogonalEdgeStyle;endArrow=ERzeroToMany;startArrow=ERzeroToOne;endFill=1;startFill=0;exitX=0.5;exitY=0;exitDx=0;exitDy=0;entryX=0.25;entryY=1;entryDx=0;entryDy=0;rounded=0;strokeWidth=1;sourcePerimeterSpacing=6;endSize=8;startSize=8;" edge="1" parent="1" source="-ADNXhnUNOLjZ2h_mKhe-3" target="-ADNXhnUNOLjZ2h_mKhe-1">
          <mxGeometry width="100" height="100" relative="1" as="geometry">
            <mxPoint x="1175" y="346" as="sourcePoint" />
            <mxPoint x="1175" y="536" as="targetPoint" />
          </mxGeometry>
        </mxCell>
        <mxCell id="-ADNXhnUNOLjZ2h_mKhe-6" value="" style="edgeStyle=orthogonalEdgeStyle;endArrow=ERzeroToMany;startArrow=ERzeroToOne;endFill=1;startFill=0;exitX=0;exitY=0.5;exitDx=0;exitDy=0;entryX=1;entryY=0.5;entryDx=0;entryDy=0;rounded=0;strokeWidth=1;sourcePerimeterSpacing=6;endSize=8;startSize=8;" edge="1" parent="1" source="-ADNXhnUNOLjZ2h_mKhe-4" target="-ADNXhnUNOLjZ2h_mKhe-1">
          <mxGeometry width="100" height="100" relative="1" as="geometry">
            <mxPoint x="1365" y="219" as="sourcePoint" />
            <mxPoint x="1434" y="137" as="targetPoint" />
          </mxGeometry>
        </mxCell>
        <mxCell id="-ADNXhnUNOLjZ2h_mKhe-7" value="Project" style="rounded=0;whiteSpace=wrap;html=1;fontSize=16;" vertex="1" parent="1">
          <mxGeometry x="1021" y="149" width="120" height="60" as="geometry" />
        </mxCell>
        <mxCell id="-ADNXhnUNOLjZ2h_mKhe-8" value="" style="edgeStyle=orthogonalEdgeStyle;endArrow=ERzeroToMany;startArrow=ERzeroToOne;endFill=1;startFill=0;exitX=1;exitY=0.25;exitDx=0;exitDy=0;entryX=0;entryY=0.5;entryDx=0;entryDy=0;rounded=0;strokeWidth=1;sourcePerimeterSpacing=6;startSize=8;endSize=8;" edge="1" parent="1" source="-ADNXhnUNOLjZ2h_mKhe-7" target="-ADNXhnUNOLjZ2h_mKhe-1">
          <mxGeometry width="100" height="100" relative="1" as="geometry">
            <mxPoint x="993" y="329" as="sourcePoint" />
            <mxPoint x="1062" y="247" as="targetPoint" />
          </mxGeometry>
        </mxCell>
        <mxCell id="-ADNXhnUNOLjZ2h_mKhe-9" value="" style="edgeStyle=orthogonalEdgeStyle;endArrow=ERzeroToMany;startArrow=ERmandOne;endFill=1;startFill=0;exitX=0;exitY=0.25;exitDx=0;exitDy=0;entryX=1;entryY=0.75;entryDx=0;entryDy=0;rounded=0;strokeWidth=1;sourcePerimeterSpacing=6;endSize=8;startSize=8;" edge="1" parent="1" source="-ADNXhnUNOLjZ2h_mKhe-3" target="-ADNXhnUNOLjZ2h_mKhe-7">
          <mxGeometry width="100" height="100" relative="1" as="geometry">
            <mxPoint x="1043" y="329" as="sourcePoint" />
            <mxPoint x="1112" y="247" as="targetPoint" />
          </mxGeometry>
        </mxCell>
        <mxCell id="-ADNXhnUNOLjZ2h_mKhe-10" value="Vacation" style="rounded=0;whiteSpace=wrap;html=1;fontSize=16;" vertex="1" parent="1">
          <mxGeometry x="853" y="361" width="120" height="60" as="geometry" />
        </mxCell>
        <mxCell id="-ADNXhnUNOLjZ2h_mKhe-11" value="" style="edgeStyle=orthogonalEdgeStyle;endArrow=ERzeroToMany;startArrow=ERmandOne;endFill=1;startFill=0;exitX=0;exitY=0.5;exitDx=0;exitDy=0;entryX=0.5;entryY=0;entryDx=0;entryDy=0;rounded=0;strokeWidth=1;sourcePerimeterSpacing=6;endSize=8;startSize=8;" edge="1" parent="1" source="-ADNXhnUNOLjZ2h_mKhe-3" target="-ADNXhnUNOLjZ2h_mKhe-10">
          <mxGeometry width="100" height="100" relative="1" as="geometry">
            <mxPoint x="1219" y="474" as="sourcePoint" />
            <mxPoint x="1174" y="409" as="targetPoint" />
          </mxGeometry>
        </mxCell>
        <mxCell id="-ADNXhnUNOLjZ2h_mKhe-12" value="BusinessTrip" style="rounded=0;whiteSpace=wrap;html=1;fontSize=16;" vertex="1" parent="1">
          <mxGeometry x="1005" y="358" width="120" height="60" as="geometry" />
        </mxCell>
        <mxCell id="-ADNXhnUNOLjZ2h_mKhe-13" value="" style="edgeStyle=orthogonalEdgeStyle;endArrow=ERzeroToMany;startArrow=ERoneToMany;endFill=1;startFill=0;exitX=0;exitY=0.75;exitDx=0;exitDy=0;entryX=0.25;entryY=0;entryDx=0;entryDy=0;rounded=0;strokeWidth=1;sourcePerimeterSpacing=6;endSize=8;startSize=8;" edge="1" parent="1" source="-ADNXhnUNOLjZ2h_mKhe-3" target="-ADNXhnUNOLjZ2h_mKhe-12">
          <mxGeometry width="100" height="100" relative="1" as="geometry">
            <mxPoint x="1512" y="361" as="sourcePoint" />
            <mxPoint x="1375" y="445" as="targetPoint" />
          </mxGeometry>
        </mxCell>
        <mxCell id="-ADNXhnUNOLjZ2h_mKhe-14" value="Department" style="rounded=0;whiteSpace=wrap;html=1;fontSize=16;" vertex="1" parent="1">
          <mxGeometry x="1157" y="356" width="120" height="60" as="geometry" />
        </mxCell>
        <mxCell id="-ADNXhnUNOLjZ2h_mKhe-15" value="" style="edgeStyle=orthogonalEdgeStyle;endArrow=ERmandOne;startArrow=ERoneToMany;endFill=0;startFill=0;entryX=0.5;entryY=0;entryDx=0;entryDy=0;rounded=0;strokeWidth=1;sourcePerimeterSpacing=6;endSize=8;startSize=8;exitX=0.25;exitY=1;exitDx=0;exitDy=0;" edge="1" parent="1" source="-ADNXhnUNOLjZ2h_mKhe-3" target="-ADNXhnUNOLjZ2h_mKhe-14">
          <mxGeometry width="100" height="100" relative="1" as="geometry">
            <mxPoint x="1229" y="453" as="sourcePoint" />
            <mxPoint x="1228" y="518" as="targetPoint" />
            <Array as="points">
              <mxPoint x="1216" y="356" />
            </Array>
          </mxGeometry>
        </mxCell>
        <mxCell id="-ADNXhnUNOLjZ2h_mKhe-16" value="Report" style="rounded=0;whiteSpace=wrap;html=1;fontSize=16;" vertex="1" parent="1">
          <mxGeometry x="1436" y="214" width="120" height="60" as="geometry" />
        </mxCell>
        <mxCell id="-ADNXhnUNOLjZ2h_mKhe-17" value="" style="edgeStyle=orthogonalEdgeStyle;endArrow=ERzeroToMany;startArrow=ERmandOne;endFill=1;startFill=0;exitX=1;exitY=0.25;exitDx=0;exitDy=0;entryX=0;entryY=0.5;entryDx=0;entryDy=0;rounded=0;strokeWidth=1;sourcePerimeterSpacing=6;endSize=8;startSize=8;" edge="1" parent="1" source="-ADNXhnUNOLjZ2h_mKhe-3" target="-ADNXhnUNOLjZ2h_mKhe-16">
          <mxGeometry width="100" height="100" relative="1" as="geometry">
            <mxPoint x="1699" y="472" as="sourcePoint" />
            <mxPoint x="1426" y="559" as="targetPoint" />
          </mxGeometry>
        </mxCell>
        <mxCell id="-ADNXhnUNOLjZ2h_mKhe-18" value="WorkSchedule" style="rounded=0;whiteSpace=wrap;html=1;fontSize=16;" vertex="1" parent="1">
          <mxGeometry x="1300" y="356" width="120" height="60" as="geometry" />
        </mxCell>
        <mxCell id="-ADNXhnUNOLjZ2h_mKhe-19" value="" style="edgeStyle=orthogonalEdgeStyle;endArrow=ERmandOne;startArrow=ERoneToMany;endFill=0;startFill=0;rounded=0;strokeWidth=1;sourcePerimeterSpacing=6;endSize=8;startSize=8;exitX=0.75;exitY=1;exitDx=0;exitDy=0;entryX=0.25;entryY=0;entryDx=0;entryDy=0;" edge="1" parent="1" source="-ADNXhnUNOLjZ2h_mKhe-3" target="-ADNXhnUNOLjZ2h_mKhe-18">
          <mxGeometry width="100" height="100" relative="1" as="geometry">
            <mxPoint x="1471" y="221" as="sourcePoint" />
            <mxPoint x="1463" y="334" as="targetPoint" />
            <Array as="points">
              <mxPoint x="1276" y="346" />
              <mxPoint x="1330" y="346" />
            </Array>
          </mxGeometry>
        </mxCell>
        <mxCell id="-ADNXhnUNOLjZ2h_mKhe-20" value="ReportItem" style="rounded=0;whiteSpace=wrap;html=1;fontSize=16;" vertex="1" parent="1">
          <mxGeometry x="1610" y="214" width="120" height="60" as="geometry" />
        </mxCell>
        <mxCell id="-ADNXhnUNOLjZ2h_mKhe-21" value="" style="edgeStyle=orthogonalEdgeStyle;endArrow=ERzeroToOne;startArrow=ERzeroToMany;endFill=0;startFill=0;exitX=0.25;exitY=0;exitDx=0;exitDy=0;entryX=0.75;entryY=1;entryDx=0;entryDy=0;rounded=0;strokeWidth=1;sourcePerimeterSpacing=6;endSize=8;startSize=8;" edge="1" parent="1" source="-ADNXhnUNOLjZ2h_mKhe-20" target="-ADNXhnUNOLjZ2h_mKhe-1">
          <mxGeometry width="100" height="100" relative="1" as="geometry">
            <mxPoint x="1527" y="385.17" as="sourcePoint" />
            <mxPoint x="1657" y="386.17" as="targetPoint" />
          </mxGeometry>
        </mxCell>
        <mxCell id="-ADNXhnUNOLjZ2h_mKhe-22" value="Notification" style="rounded=0;whiteSpace=wrap;html=1;fontSize=16;" vertex="1" parent="1">
          <mxGeometry x="1447" y="358" width="120" height="60" as="geometry" />
        </mxCell>
        <mxCell id="-ADNXhnUNOLjZ2h_mKhe-23" value="" style="edgeStyle=orthogonalEdgeStyle;endArrow=ERoneToMany;startArrow=ERzeroToMany;endFill=0;startFill=0;exitX=0.25;exitY=0;exitDx=0;exitDy=0;entryX=1;entryY=1;entryDx=0;entryDy=0;rounded=0;strokeWidth=1;sourcePerimeterSpacing=6;endSize=8;startSize=8;" edge="1" parent="1" source="-ADNXhnUNOLjZ2h_mKhe-22" target="-ADNXhnUNOLjZ2h_mKhe-3">
          <mxGeometry width="100" height="100" relative="1" as="geometry">
            <mxPoint x="1730" y="521" as="sourcePoint" />
            <mxPoint x="1435" y="453" as="targetPoint" />
          </mxGeometry>
        </mxCell>
        <mxCell id="-ADNXhnUNOLjZ2h_mKhe-24" value="Position" style="rounded=0;whiteSpace=wrap;html=1;fontSize=16;" vertex="1" parent="1">
          <mxGeometry x="1606" y="356" width="120" height="60" as="geometry" />
        </mxCell>
        <mxCell id="-ADNXhnUNOLjZ2h_mKhe-25" value="" style="edgeStyle=orthogonalEdgeStyle;endArrow=ERmandOne;startArrow=ERzeroToMany;endFill=0;startFill=0;exitX=1;exitY=0.75;exitDx=0;exitDy=0;entryX=0.25;entryY=0;entryDx=0;entryDy=0;rounded=0;strokeWidth=1;sourcePerimeterSpacing=6;endSize=8;startSize=8;" edge="1" parent="1" source="-ADNXhnUNOLjZ2h_mKhe-3" target="-ADNXhnUNOLjZ2h_mKhe-24">
          <mxGeometry width="100" height="100" relative="1" as="geometry">
            <mxPoint x="1598" y="499" as="sourcePoint" />
            <mxPoint x="1427" y="445" as="targetPoint" />
            <Array as="points">
              <mxPoint x="1636" y="289" />
            </Array>
          </mxGeometry>
        </mxCell>
        <mxCell id="-ADNXhnUNOLjZ2h_mKhe-26" value="ReportItemType" style="rounded=0;whiteSpace=wrap;html=1;fontSize=16;" vertex="1" parent="1">
          <mxGeometry x="1784" y="214" width="120" height="60" as="geometry" />
        </mxCell>
        <mxCell id="-ADNXhnUNOLjZ2h_mKhe-27" value="" style="edgeStyle=orthogonalEdgeStyle;endArrow=ERmandOne;startArrow=ERzeroToMany;endFill=0;startFill=0;exitX=1;exitY=0.5;exitDx=0;exitDy=0;entryX=0;entryY=0.5;entryDx=0;entryDy=0;rounded=0;strokeWidth=1;sourcePerimeterSpacing=6;endSize=8;startSize=8;" edge="1" parent="1" source="-ADNXhnUNOLjZ2h_mKhe-20" target="-ADNXhnUNOLjZ2h_mKhe-26">
          <mxGeometry width="100" height="100" relative="1" as="geometry">
            <mxPoint x="1679" y="328" as="sourcePoint" />
            <mxPoint x="2009" y="395" as="targetPoint" />
            <Array as="points">
              <mxPoint x="1755" y="244" />
              <mxPoint x="1755" y="244" />
            </Array>
          </mxGeometry>
        </mxCell>
        <mxCell id="-ADNXhnUNOLjZ2h_mKhe-28" value="Task" style="shape=table;startSize=30;container=1;collapsible=1;childLayout=tableLayout;fixedRows=1;rowLines=0;fontStyle=1;align=center;resizeLast=1;fontSize=16;" vertex="1" parent="1">
          <mxGeometry x="1179" y="526" width="302" height="401.69" as="geometry" />
        </mxCell>
        <mxCell id="-ADNXhnUNOLjZ2h_mKhe-29" value="" style="shape=partialRectangle;collapsible=0;dropTarget=0;pointerEvents=0;fillColor=none;points=[[0,0.5],[1,0.5]];portConstraint=eastwest;top=0;left=0;right=0;bottom=1;fontSize=16;" vertex="1" parent="-ADNXhnUNOLjZ2h_mKhe-28">
          <mxGeometry y="30" width="302" height="30" as="geometry" />
        </mxCell>
        <mxCell id="-ADNXhnUNOLjZ2h_mKhe-30" value="PK" style="shape=partialRectangle;overflow=hidden;connectable=0;fillColor=none;top=0;left=0;bottom=0;right=0;fontStyle=1;fontSize=16;" vertex="1" parent="-ADNXhnUNOLjZ2h_mKhe-29">
          <mxGeometry width="30" height="30" as="geometry">
            <mxRectangle width="30" height="30" as="alternateBounds" />
          </mxGeometry>
        </mxCell>
        <mxCell id="-ADNXhnUNOLjZ2h_mKhe-31" value="task_id int NOT NULL" style="shape=partialRectangle;overflow=hidden;connectable=0;fillColor=none;top=0;left=0;bottom=0;right=0;align=left;spacingLeft=6;fontStyle=5;fontSize=16;" vertex="1" parent="-ADNXhnUNOLjZ2h_mKhe-29">
          <mxGeometry x="30" width="272" height="30" as="geometry">
            <mxRectangle width="272" height="30" as="alternateBounds" />
          </mxGeometry>
        </mxCell>
        <mxCell id="-ADNXhnUNOLjZ2h_mKhe-32" value="" style="shape=partialRectangle;collapsible=0;dropTarget=0;pointerEvents=0;fillColor=none;points=[[0,0.5],[1,0.5]];portConstraint=eastwest;top=0;left=0;right=0;bottom=0;fontSize=16;" vertex="1" parent="-ADNXhnUNOLjZ2h_mKhe-28">
          <mxGeometry y="60" width="302" height="30" as="geometry" />
        </mxCell>
        <mxCell id="-ADNXhnUNOLjZ2h_mKhe-33" value="FK" style="shape=partialRectangle;overflow=hidden;connectable=0;fillColor=none;top=0;left=0;bottom=0;right=0;fontSize=16;" vertex="1" parent="-ADNXhnUNOLjZ2h_mKhe-32">
          <mxGeometry width="30" height="30" as="geometry">
            <mxRectangle width="30" height="30" as="alternateBounds" />
          </mxGeometry>
        </mxCell>
        <mxCell id="-ADNXhnUNOLjZ2h_mKhe-34" value="project_id int " style="shape=partialRectangle;overflow=hidden;connectable=0;fillColor=none;top=0;left=0;bottom=0;right=0;align=left;spacingLeft=6;fontSize=16;" vertex="1" parent="-ADNXhnUNOLjZ2h_mKhe-32">
          <mxGeometry x="30" width="272" height="30" as="geometry">
            <mxRectangle width="272" height="30" as="alternateBounds" />
          </mxGeometry>
        </mxCell>
        <mxCell id="-ADNXhnUNOLjZ2h_mKhe-35" value="" style="shape=partialRectangle;collapsible=0;dropTarget=0;pointerEvents=0;fillColor=none;points=[[0,0.5],[1,0.5]];portConstraint=eastwest;top=0;left=0;right=0;bottom=0;fontSize=16;" vertex="1" parent="-ADNXhnUNOLjZ2h_mKhe-28">
          <mxGeometry y="90" width="302" height="30" as="geometry" />
        </mxCell>
        <mxCell id="-ADNXhnUNOLjZ2h_mKhe-36" value="FK" style="shape=partialRectangle;overflow=hidden;connectable=0;fillColor=none;top=0;left=0;bottom=0;right=0;fontSize=16;" vertex="1" parent="-ADNXhnUNOLjZ2h_mKhe-35">
          <mxGeometry width="30" height="30" as="geometry">
            <mxRectangle width="30" height="30" as="alternateBounds" />
          </mxGeometry>
        </mxCell>
        <mxCell id="-ADNXhnUNOLjZ2h_mKhe-37" value="reporter_id int" style="shape=partialRectangle;overflow=hidden;connectable=0;fillColor=none;top=0;left=0;bottom=0;right=0;align=left;spacingLeft=6;fontSize=16;" vertex="1" parent="-ADNXhnUNOLjZ2h_mKhe-35">
          <mxGeometry x="30" width="272" height="30" as="geometry">
            <mxRectangle width="272" height="30" as="alternateBounds" />
          </mxGeometry>
        </mxCell>
        <mxCell id="-ADNXhnUNOLjZ2h_mKhe-38" style="shape=partialRectangle;collapsible=0;dropTarget=0;pointerEvents=0;fillColor=none;points=[[0,0.5],[1,0.5]];portConstraint=eastwest;top=0;left=0;right=0;bottom=0;fontSize=16;" vertex="1" parent="-ADNXhnUNOLjZ2h_mKhe-28">
          <mxGeometry y="120" width="302" height="30" as="geometry" />
        </mxCell>
        <mxCell id="-ADNXhnUNOLjZ2h_mKhe-39" value="FK" style="shape=partialRectangle;overflow=hidden;connectable=0;fillColor=none;top=0;left=0;bottom=0;right=0;fontSize=16;" vertex="1" parent="-ADNXhnUNOLjZ2h_mKhe-38">
          <mxGeometry width="30" height="30" as="geometry">
            <mxRectangle width="30" height="30" as="alternateBounds" />
          </mxGeometry>
        </mxCell>
        <mxCell id="-ADNXhnUNOLjZ2h_mKhe-40" value="assignee_id  int" style="shape=partialRectangle;overflow=hidden;connectable=0;fillColor=none;top=0;left=0;bottom=0;right=0;align=left;spacingLeft=6;fontSize=16;" vertex="1" parent="-ADNXhnUNOLjZ2h_mKhe-38">
          <mxGeometry x="30" width="272" height="30" as="geometry">
            <mxRectangle width="272" height="30" as="alternateBounds" />
          </mxGeometry>
        </mxCell>
        <mxCell id="-ADNXhnUNOLjZ2h_mKhe-41" style="shape=partialRectangle;collapsible=0;dropTarget=0;pointerEvents=0;fillColor=none;points=[[0,0.5],[1,0.5]];portConstraint=eastwest;top=0;left=0;right=0;bottom=0;fontSize=16;" vertex="1" parent="-ADNXhnUNOLjZ2h_mKhe-28">
          <mxGeometry y="150" width="302" height="32" as="geometry" />
        </mxCell>
        <mxCell id="-ADNXhnUNOLjZ2h_mKhe-42" value="FK" style="shape=partialRectangle;overflow=hidden;connectable=0;fillColor=none;top=0;left=0;bottom=0;right=0;fontSize=16;" vertex="1" parent="-ADNXhnUNOLjZ2h_mKhe-41">
          <mxGeometry width="30" height="32" as="geometry">
            <mxRectangle width="30" height="32" as="alternateBounds" />
          </mxGeometry>
        </mxCell>
        <mxCell id="-ADNXhnUNOLjZ2h_mKhe-43" value="task_type_id  int" style="shape=partialRectangle;overflow=hidden;connectable=0;fillColor=none;top=0;left=0;bottom=0;right=0;align=left;spacingLeft=6;fontSize=16;" vertex="1" parent="-ADNXhnUNOLjZ2h_mKhe-41">
          <mxGeometry x="30" width="272" height="32" as="geometry">
            <mxRectangle width="272" height="32" as="alternateBounds" />
          </mxGeometry>
        </mxCell>
        <mxCell id="-ADNXhnUNOLjZ2h_mKhe-44" style="shape=partialRectangle;collapsible=0;dropTarget=0;pointerEvents=0;fillColor=none;points=[[0,0.5],[1,0.5]];portConstraint=eastwest;top=0;left=0;right=0;bottom=0;fontSize=16;" vertex="1" parent="-ADNXhnUNOLjZ2h_mKhe-28">
          <mxGeometry y="182" width="302" height="30" as="geometry" />
        </mxCell>
        <mxCell id="-ADNXhnUNOLjZ2h_mKhe-45" style="shape=partialRectangle;overflow=hidden;connectable=0;fillColor=none;top=0;left=0;bottom=0;right=0;fontSize=16;" vertex="1" parent="-ADNXhnUNOLjZ2h_mKhe-44">
          <mxGeometry width="30" height="30" as="geometry">
            <mxRectangle width="30" height="30" as="alternateBounds" />
          </mxGeometry>
        </mxCell>
        <mxCell id="-ADNXhnUNOLjZ2h_mKhe-46" value="name VARCHAR(100)" style="shape=partialRectangle;overflow=hidden;connectable=0;fillColor=none;top=0;left=0;bottom=0;right=0;align=left;spacingLeft=6;fontSize=16;" vertex="1" parent="-ADNXhnUNOLjZ2h_mKhe-44">
          <mxGeometry x="30" width="272" height="30" as="geometry">
            <mxRectangle width="272" height="30" as="alternateBounds" />
          </mxGeometry>
        </mxCell>
        <mxCell id="-ADNXhnUNOLjZ2h_mKhe-47" style="shape=partialRectangle;collapsible=0;dropTarget=0;pointerEvents=0;fillColor=none;points=[[0,0.5],[1,0.5]];portConstraint=eastwest;top=0;left=0;right=0;bottom=0;fontSize=16;" vertex="1" parent="-ADNXhnUNOLjZ2h_mKhe-28">
          <mxGeometry y="212" width="302" height="30" as="geometry" />
        </mxCell>
        <mxCell id="-ADNXhnUNOLjZ2h_mKhe-48" style="shape=partialRectangle;overflow=hidden;connectable=0;fillColor=none;top=0;left=0;bottom=0;right=0;fontSize=16;" vertex="1" parent="-ADNXhnUNOLjZ2h_mKhe-47">
          <mxGeometry width="30" height="30" as="geometry">
            <mxRectangle width="30" height="30" as="alternateBounds" />
          </mxGeometry>
        </mxCell>
        <mxCell id="-ADNXhnUNOLjZ2h_mKhe-49" value="description VARCHAR(1000)" style="shape=partialRectangle;overflow=hidden;connectable=0;fillColor=none;top=0;left=0;bottom=0;right=0;align=left;spacingLeft=6;fontSize=16;" vertex="1" parent="-ADNXhnUNOLjZ2h_mKhe-47">
          <mxGeometry x="30" width="272" height="30" as="geometry">
            <mxRectangle width="272" height="30" as="alternateBounds" />
          </mxGeometry>
        </mxCell>
        <mxCell id="-ADNXhnUNOLjZ2h_mKhe-50" style="shape=partialRectangle;collapsible=0;dropTarget=0;pointerEvents=0;fillColor=none;points=[[0,0.5],[1,0.5]];portConstraint=eastwest;top=0;left=0;right=0;bottom=0;fontSize=16;" vertex="1" parent="-ADNXhnUNOLjZ2h_mKhe-28">
          <mxGeometry y="242" width="302" height="30" as="geometry" />
        </mxCell>
        <mxCell id="-ADNXhnUNOLjZ2h_mKhe-51" style="shape=partialRectangle;overflow=hidden;connectable=0;fillColor=none;top=0;left=0;bottom=0;right=0;fontSize=16;" vertex="1" parent="-ADNXhnUNOLjZ2h_mKhe-50">
          <mxGeometry width="30" height="30" as="geometry">
            <mxRectangle width="30" height="30" as="alternateBounds" />
          </mxGeometry>
        </mxCell>
        <mxCell id="-ADNXhnUNOLjZ2h_mKhe-52" value="status ENUM" style="shape=partialRectangle;overflow=hidden;connectable=0;fillColor=none;top=0;left=0;bottom=0;right=0;align=left;spacingLeft=6;fontSize=16;" vertex="1" parent="-ADNXhnUNOLjZ2h_mKhe-50">
          <mxGeometry x="30" width="272" height="30" as="geometry">
            <mxRectangle width="272" height="30" as="alternateBounds" />
          </mxGeometry>
        </mxCell>
        <mxCell id="-ADNXhnUNOLjZ2h_mKhe-53" style="shape=partialRectangle;collapsible=0;dropTarget=0;pointerEvents=0;fillColor=none;points=[[0,0.5],[1,0.5]];portConstraint=eastwest;top=0;left=0;right=0;bottom=0;fontSize=16;" vertex="1" parent="-ADNXhnUNOLjZ2h_mKhe-28">
          <mxGeometry y="272" width="302" height="30" as="geometry" />
        </mxCell>
        <mxCell id="-ADNXhnUNOLjZ2h_mKhe-54" style="shape=partialRectangle;overflow=hidden;connectable=0;fillColor=none;top=0;left=0;bottom=0;right=0;fontSize=16;" vertex="1" parent="-ADNXhnUNOLjZ2h_mKhe-53">
          <mxGeometry width="30" height="30" as="geometry">
            <mxRectangle width="30" height="30" as="alternateBounds" />
          </mxGeometry>
        </mxCell>
        <mxCell id="-ADNXhnUNOLjZ2h_mKhe-55" value="creation_date DATETIME NOT NULL" style="shape=partialRectangle;overflow=hidden;connectable=0;fillColor=none;top=0;left=0;bottom=0;right=0;align=left;spacingLeft=6;fontSize=16;" vertex="1" parent="-ADNXhnUNOLjZ2h_mKhe-53">
          <mxGeometry x="30" width="272" height="30" as="geometry">
            <mxRectangle width="272" height="30" as="alternateBounds" />
          </mxGeometry>
        </mxCell>
        <mxCell id="-ADNXhnUNOLjZ2h_mKhe-56" style="shape=partialRectangle;collapsible=0;dropTarget=0;pointerEvents=0;fillColor=none;points=[[0,0.5],[1,0.5]];portConstraint=eastwest;top=0;left=0;right=0;bottom=0;fontSize=16;" vertex="1" parent="-ADNXhnUNOLjZ2h_mKhe-28">
          <mxGeometry y="302" width="302" height="30" as="geometry" />
        </mxCell>
        <mxCell id="-ADNXhnUNOLjZ2h_mKhe-57" style="shape=partialRectangle;overflow=hidden;connectable=0;fillColor=none;top=0;left=0;bottom=0;right=0;fontSize=16;" vertex="1" parent="-ADNXhnUNOLjZ2h_mKhe-56">
          <mxGeometry width="30" height="30" as="geometry">
            <mxRectangle width="30" height="30" as="alternateBounds" />
          </mxGeometry>
        </mxCell>
        <mxCell id="-ADNXhnUNOLjZ2h_mKhe-58" value="time_spent  int" style="shape=partialRectangle;overflow=hidden;connectable=0;fillColor=none;top=0;left=0;bottom=0;right=0;align=left;spacingLeft=6;fontSize=16;" vertex="1" parent="-ADNXhnUNOLjZ2h_mKhe-56">
          <mxGeometry x="30" width="272" height="30" as="geometry">
            <mxRectangle width="272" height="30" as="alternateBounds" />
          </mxGeometry>
        </mxCell>
        <mxCell id="-ADNXhnUNOLjZ2h_mKhe-59" style="shape=partialRectangle;collapsible=0;dropTarget=0;pointerEvents=0;fillColor=none;points=[[0,0.5],[1,0.5]];portConstraint=eastwest;top=0;left=0;right=0;bottom=0;fontSize=16;" vertex="1" parent="-ADNXhnUNOLjZ2h_mKhe-28">
          <mxGeometry y="332" width="302" height="30" as="geometry" />
        </mxCell>
        <mxCell id="-ADNXhnUNOLjZ2h_mKhe-60" style="shape=partialRectangle;overflow=hidden;connectable=0;fillColor=none;top=0;left=0;bottom=0;right=0;fontSize=16;" vertex="1" parent="-ADNXhnUNOLjZ2h_mKhe-59">
          <mxGeometry width="30" height="30" as="geometry">
            <mxRectangle width="30" height="30" as="alternateBounds" />
          </mxGeometry>
        </mxCell>
        <mxCell id="-ADNXhnUNOLjZ2h_mKhe-61" value="time_given  int" style="shape=partialRectangle;overflow=hidden;connectable=0;fillColor=none;top=0;left=0;bottom=0;right=0;align=left;spacingLeft=6;fontSize=16;" vertex="1" parent="-ADNXhnUNOLjZ2h_mKhe-59">
          <mxGeometry x="30" width="272" height="30" as="geometry">
            <mxRectangle width="272" height="30" as="alternateBounds" />
          </mxGeometry>
        </mxCell>
        <mxCell id="-ADNXhnUNOLjZ2h_mKhe-62" style="shape=partialRectangle;collapsible=0;dropTarget=0;pointerEvents=0;fillColor=none;points=[[0,0.5],[1,0.5]];portConstraint=eastwest;top=0;left=0;right=0;bottom=0;fontSize=16;" vertex="1" parent="-ADNXhnUNOLjZ2h_mKhe-28">
          <mxGeometry y="362" width="302" height="30" as="geometry" />
        </mxCell>
        <mxCell id="-ADNXhnUNOLjZ2h_mKhe-63" style="shape=partialRectangle;overflow=hidden;connectable=0;fillColor=none;top=0;left=0;bottom=0;right=0;fontSize=16;" vertex="1" parent="-ADNXhnUNOLjZ2h_mKhe-62">
          <mxGeometry width="30" height="30" as="geometry">
            <mxRectangle width="30" height="30" as="alternateBounds" />
          </mxGeometry>
        </mxCell>
        <mxCell id="-ADNXhnUNOLjZ2h_mKhe-64" value="num_in_project int" style="shape=partialRectangle;overflow=hidden;connectable=0;fillColor=none;top=0;left=0;bottom=0;right=0;align=left;spacingLeft=6;fontSize=16;" vertex="1" parent="-ADNXhnUNOLjZ2h_mKhe-62">
          <mxGeometry x="30" width="272" height="30" as="geometry">
            <mxRectangle width="272" height="30" as="alternateBounds" />
          </mxGeometry>
        </mxCell>
        <mxCell id="-ADNXhnUNOLjZ2h_mKhe-65" value="User" style="shape=table;startSize=30;container=1;collapsible=1;childLayout=tableLayout;fixedRows=1;rowLines=0;fontStyle=1;align=center;resizeLast=1;fontSize=16;" vertex="1" parent="1">
          <mxGeometry x="691" y="969" width="270" height="307.06" as="geometry" />
        </mxCell>
        <mxCell id="-ADNXhnUNOLjZ2h_mKhe-66" value="" style="shape=partialRectangle;collapsible=0;dropTarget=0;pointerEvents=0;fillColor=none;points=[[0,0.5],[1,0.5]];portConstraint=eastwest;top=0;left=0;right=0;bottom=1;fontSize=16;" vertex="1" parent="-ADNXhnUNOLjZ2h_mKhe-65">
          <mxGeometry y="30" width="270" height="30" as="geometry" />
        </mxCell>
        <mxCell id="-ADNXhnUNOLjZ2h_mKhe-67" value="PK" style="shape=partialRectangle;overflow=hidden;connectable=0;fillColor=none;top=0;left=0;bottom=0;right=0;fontStyle=1;fontSize=16;" vertex="1" parent="-ADNXhnUNOLjZ2h_mKhe-66">
          <mxGeometry width="30" height="30" as="geometry">
            <mxRectangle width="30" height="30" as="alternateBounds" />
          </mxGeometry>
        </mxCell>
        <mxCell id="-ADNXhnUNOLjZ2h_mKhe-68" value="user_id int NOT NULL" style="shape=partialRectangle;overflow=hidden;connectable=0;fillColor=none;top=0;left=0;bottom=0;right=0;align=left;spacingLeft=6;fontStyle=5;fontSize=16;" vertex="1" parent="-ADNXhnUNOLjZ2h_mKhe-66">
          <mxGeometry x="30" width="240" height="30" as="geometry">
            <mxRectangle width="240" height="30" as="alternateBounds" />
          </mxGeometry>
        </mxCell>
        <mxCell id="-ADNXhnUNOLjZ2h_mKhe-69" value="" style="shape=partialRectangle;collapsible=0;dropTarget=0;pointerEvents=0;fillColor=none;points=[[0,0.5],[1,0.5]];portConstraint=eastwest;top=0;left=0;right=0;bottom=0;fontSize=16;" vertex="1" parent="-ADNXhnUNOLjZ2h_mKhe-65">
          <mxGeometry y="60" width="270" height="24" as="geometry" />
        </mxCell>
        <mxCell id="-ADNXhnUNOLjZ2h_mKhe-70" value="FK" style="shape=partialRectangle;overflow=hidden;connectable=0;fillColor=none;top=0;left=0;bottom=0;right=0;fontSize=16;" vertex="1" parent="-ADNXhnUNOLjZ2h_mKhe-69">
          <mxGeometry width="30" height="24" as="geometry">
            <mxRectangle width="30" height="24" as="alternateBounds" />
          </mxGeometry>
        </mxCell>
        <mxCell id="-ADNXhnUNOLjZ2h_mKhe-71" value="position_id int NOT NULL" style="shape=partialRectangle;overflow=hidden;connectable=0;fillColor=none;top=0;left=0;bottom=0;right=0;align=left;spacingLeft=6;fontSize=16;" vertex="1" parent="-ADNXhnUNOLjZ2h_mKhe-69">
          <mxGeometry x="30" width="240" height="24" as="geometry">
            <mxRectangle width="240" height="24" as="alternateBounds" />
          </mxGeometry>
        </mxCell>
        <mxCell id="-ADNXhnUNOLjZ2h_mKhe-72" style="shape=partialRectangle;collapsible=0;dropTarget=0;pointerEvents=0;fillColor=none;points=[[0,0.5],[1,0.5]];portConstraint=eastwest;top=0;left=0;right=0;bottom=0;fontSize=16;" vertex="1" parent="-ADNXhnUNOLjZ2h_mKhe-65">
          <mxGeometry y="84" width="270" height="26" as="geometry" />
        </mxCell>
        <mxCell id="-ADNXhnUNOLjZ2h_mKhe-73" value="FK" style="shape=partialRectangle;overflow=hidden;connectable=0;fillColor=none;top=0;left=0;bottom=0;right=0;fontSize=16;" vertex="1" parent="-ADNXhnUNOLjZ2h_mKhe-72">
          <mxGeometry width="30" height="26" as="geometry">
            <mxRectangle width="30" height="26" as="alternateBounds" />
          </mxGeometry>
        </mxCell>
        <mxCell id="-ADNXhnUNOLjZ2h_mKhe-74" value="department_id int NOT NULL" style="shape=partialRectangle;overflow=hidden;connectable=0;fillColor=none;top=0;left=0;bottom=0;right=0;align=left;spacingLeft=6;fontSize=16;" vertex="1" parent="-ADNXhnUNOLjZ2h_mKhe-72">
          <mxGeometry x="30" width="240" height="26" as="geometry">
            <mxRectangle width="240" height="26" as="alternateBounds" />
          </mxGeometry>
        </mxCell>
        <mxCell id="-ADNXhnUNOLjZ2h_mKhe-75" style="shape=partialRectangle;collapsible=0;dropTarget=0;pointerEvents=0;fillColor=none;points=[[0,0.5],[1,0.5]];portConstraint=eastwest;top=0;left=0;right=0;bottom=0;fontSize=16;" vertex="1" parent="-ADNXhnUNOLjZ2h_mKhe-65">
          <mxGeometry y="110" width="270" height="24" as="geometry" />
        </mxCell>
        <mxCell id="-ADNXhnUNOLjZ2h_mKhe-76" value="FK" style="shape=partialRectangle;overflow=hidden;connectable=0;fillColor=none;top=0;left=0;bottom=0;right=0;fontSize=16;" vertex="1" parent="-ADNXhnUNOLjZ2h_mKhe-75">
          <mxGeometry width="30" height="24" as="geometry">
            <mxRectangle width="30" height="24" as="alternateBounds" />
          </mxGeometry>
        </mxCell>
        <mxCell id="-ADNXhnUNOLjZ2h_mKhe-77" value="work_schedule_id int NOT NULL" style="shape=partialRectangle;overflow=hidden;connectable=0;fillColor=none;top=0;left=0;bottom=0;right=0;align=left;spacingLeft=6;fontSize=16;" vertex="1" parent="-ADNXhnUNOLjZ2h_mKhe-75">
          <mxGeometry x="30" width="240" height="24" as="geometry">
            <mxRectangle width="240" height="24" as="alternateBounds" />
          </mxGeometry>
        </mxCell>
        <mxCell id="-ADNXhnUNOLjZ2h_mKhe-78" style="shape=partialRectangle;collapsible=0;dropTarget=0;pointerEvents=0;fillColor=none;points=[[0,0.5],[1,0.5]];portConstraint=eastwest;top=0;left=0;right=0;bottom=0;fontSize=16;" vertex="1" parent="-ADNXhnUNOLjZ2h_mKhe-65">
          <mxGeometry y="134" width="270" height="24" as="geometry" />
        </mxCell>
        <mxCell id="-ADNXhnUNOLjZ2h_mKhe-79" style="shape=partialRectangle;overflow=hidden;connectable=0;fillColor=none;top=0;left=0;bottom=0;right=0;fontSize=16;" vertex="1" parent="-ADNXhnUNOLjZ2h_mKhe-78">
          <mxGeometry width="30" height="24" as="geometry">
            <mxRectangle width="30" height="24" as="alternateBounds" />
          </mxGeometry>
        </mxCell>
        <mxCell id="-ADNXhnUNOLjZ2h_mKhe-80" value="name VARCHAR(45)" style="shape=partialRectangle;overflow=hidden;connectable=0;fillColor=none;top=0;left=0;bottom=0;right=0;align=left;spacingLeft=6;fontSize=16;" vertex="1" parent="-ADNXhnUNOLjZ2h_mKhe-78">
          <mxGeometry x="30" width="240" height="24" as="geometry">
            <mxRectangle width="240" height="24" as="alternateBounds" />
          </mxGeometry>
        </mxCell>
        <mxCell id="-ADNXhnUNOLjZ2h_mKhe-81" style="shape=partialRectangle;collapsible=0;dropTarget=0;pointerEvents=0;fillColor=none;points=[[0,0.5],[1,0.5]];portConstraint=eastwest;top=0;left=0;right=0;bottom=0;fontSize=16;" vertex="1" parent="-ADNXhnUNOLjZ2h_mKhe-65">
          <mxGeometry y="158" width="270" height="24" as="geometry" />
        </mxCell>
        <mxCell id="-ADNXhnUNOLjZ2h_mKhe-82" style="shape=partialRectangle;overflow=hidden;connectable=0;fillColor=none;top=0;left=0;bottom=0;right=0;fontSize=16;" vertex="1" parent="-ADNXhnUNOLjZ2h_mKhe-81">
          <mxGeometry width="30" height="24" as="geometry">
            <mxRectangle width="30" height="24" as="alternateBounds" />
          </mxGeometry>
        </mxCell>
        <mxCell id="-ADNXhnUNOLjZ2h_mKhe-83" value="surname VARCHAR(45)" style="shape=partialRectangle;overflow=hidden;connectable=0;fillColor=none;top=0;left=0;bottom=0;right=0;align=left;spacingLeft=6;fontSize=16;" vertex="1" parent="-ADNXhnUNOLjZ2h_mKhe-81">
          <mxGeometry x="30" width="240" height="24" as="geometry">
            <mxRectangle width="240" height="24" as="alternateBounds" />
          </mxGeometry>
        </mxCell>
        <mxCell id="-ADNXhnUNOLjZ2h_mKhe-84" style="shape=partialRectangle;collapsible=0;dropTarget=0;pointerEvents=0;fillColor=none;points=[[0,0.5],[1,0.5]];portConstraint=eastwest;top=0;left=0;right=0;bottom=0;fontSize=16;" vertex="1" parent="-ADNXhnUNOLjZ2h_mKhe-65">
          <mxGeometry y="182" width="270" height="24" as="geometry" />
        </mxCell>
        <mxCell id="-ADNXhnUNOLjZ2h_mKhe-85" style="shape=partialRectangle;overflow=hidden;connectable=0;fillColor=none;top=0;left=0;bottom=0;right=0;fontSize=16;" vertex="1" parent="-ADNXhnUNOLjZ2h_mKhe-84">
          <mxGeometry width="30" height="24" as="geometry">
            <mxRectangle width="30" height="24" as="alternateBounds" />
          </mxGeometry>
        </mxCell>
        <mxCell id="-ADNXhnUNOLjZ2h_mKhe-86" value="patronymic VARCHAR(45)" style="shape=partialRectangle;overflow=hidden;connectable=0;fillColor=none;top=0;left=0;bottom=0;right=0;align=left;spacingLeft=6;fontSize=16;" vertex="1" parent="-ADNXhnUNOLjZ2h_mKhe-84">
          <mxGeometry x="30" width="240" height="24" as="geometry">
            <mxRectangle width="240" height="24" as="alternateBounds" />
          </mxGeometry>
        </mxCell>
        <mxCell id="-ADNXhnUNOLjZ2h_mKhe-87" style="shape=partialRectangle;collapsible=0;dropTarget=0;pointerEvents=0;fillColor=none;points=[[0,0.5],[1,0.5]];portConstraint=eastwest;top=0;left=0;right=0;bottom=0;fontSize=16;" vertex="1" parent="-ADNXhnUNOLjZ2h_mKhe-65">
          <mxGeometry y="206" width="270" height="24" as="geometry" />
        </mxCell>
        <mxCell id="-ADNXhnUNOLjZ2h_mKhe-88" style="shape=partialRectangle;overflow=hidden;connectable=0;fillColor=none;top=0;left=0;bottom=0;right=0;fontSize=16;" vertex="1" parent="-ADNXhnUNOLjZ2h_mKhe-87">
          <mxGeometry width="30" height="24" as="geometry">
            <mxRectangle width="30" height="24" as="alternateBounds" />
          </mxGeometry>
        </mxCell>
        <mxCell id="-ADNXhnUNOLjZ2h_mKhe-89" value="phone_num VARCHAR(13)" style="shape=partialRectangle;overflow=hidden;connectable=0;fillColor=none;top=0;left=0;bottom=0;right=0;align=left;spacingLeft=6;fontSize=16;" vertex="1" parent="-ADNXhnUNOLjZ2h_mKhe-87">
          <mxGeometry x="30" width="240" height="24" as="geometry">
            <mxRectangle width="240" height="24" as="alternateBounds" />
          </mxGeometry>
        </mxCell>
        <mxCell id="-ADNXhnUNOLjZ2h_mKhe-90" style="shape=partialRectangle;collapsible=0;dropTarget=0;pointerEvents=0;fillColor=none;points=[[0,0.5],[1,0.5]];portConstraint=eastwest;top=0;left=0;right=0;bottom=0;fontSize=16;" vertex="1" parent="-ADNXhnUNOLjZ2h_mKhe-65">
          <mxGeometry y="230" width="270" height="24" as="geometry" />
        </mxCell>
        <mxCell id="-ADNXhnUNOLjZ2h_mKhe-91" style="shape=partialRectangle;overflow=hidden;connectable=0;fillColor=none;top=0;left=0;bottom=0;right=0;fontSize=16;" vertex="1" parent="-ADNXhnUNOLjZ2h_mKhe-90">
          <mxGeometry width="30" height="24" as="geometry">
            <mxRectangle width="30" height="24" as="alternateBounds" />
          </mxGeometry>
        </mxCell>
        <mxCell id="-ADNXhnUNOLjZ2h_mKhe-92" value="role ENUM NOT NULL" style="shape=partialRectangle;overflow=hidden;connectable=0;fillColor=none;top=0;left=0;bottom=0;right=0;align=left;spacingLeft=6;fontSize=16;" vertex="1" parent="-ADNXhnUNOLjZ2h_mKhe-90">
          <mxGeometry x="30" width="240" height="24" as="geometry">
            <mxRectangle width="240" height="24" as="alternateBounds" />
          </mxGeometry>
        </mxCell>
        <mxCell id="-ADNXhnUNOLjZ2h_mKhe-93" style="shape=partialRectangle;collapsible=0;dropTarget=0;pointerEvents=0;fillColor=none;points=[[0,0.5],[1,0.5]];portConstraint=eastwest;top=0;left=0;right=0;bottom=0;fontSize=16;" vertex="1" parent="-ADNXhnUNOLjZ2h_mKhe-65">
          <mxGeometry y="254" width="270" height="24" as="geometry" />
        </mxCell>
        <mxCell id="-ADNXhnUNOLjZ2h_mKhe-94" style="shape=partialRectangle;overflow=hidden;connectable=0;fillColor=none;top=0;left=0;bottom=0;right=0;fontSize=16;" vertex="1" parent="-ADNXhnUNOLjZ2h_mKhe-93">
          <mxGeometry width="30" height="24" as="geometry">
            <mxRectangle width="30" height="24" as="alternateBounds" />
          </mxGeometry>
        </mxCell>
        <mxCell id="-ADNXhnUNOLjZ2h_mKhe-95" value="login  VARCHAR(64) NOT NULL" style="shape=partialRectangle;overflow=hidden;connectable=0;fillColor=none;top=0;left=0;bottom=0;right=0;align=left;spacingLeft=6;fontSize=16;" vertex="1" parent="-ADNXhnUNOLjZ2h_mKhe-93">
          <mxGeometry x="30" width="240" height="24" as="geometry">
            <mxRectangle width="240" height="24" as="alternateBounds" />
          </mxGeometry>
        </mxCell>
        <mxCell id="-ADNXhnUNOLjZ2h_mKhe-96" style="shape=partialRectangle;collapsible=0;dropTarget=0;pointerEvents=0;fillColor=none;points=[[0,0.5],[1,0.5]];portConstraint=eastwest;top=0;left=0;right=0;bottom=0;fontSize=16;" vertex="1" parent="-ADNXhnUNOLjZ2h_mKhe-65">
          <mxGeometry y="278" width="270" height="20" as="geometry" />
        </mxCell>
        <mxCell id="-ADNXhnUNOLjZ2h_mKhe-97" style="shape=partialRectangle;overflow=hidden;connectable=0;fillColor=none;top=0;left=0;bottom=0;right=0;fontSize=16;" vertex="1" parent="-ADNXhnUNOLjZ2h_mKhe-96">
          <mxGeometry width="30" height="20" as="geometry">
            <mxRectangle width="30" height="20" as="alternateBounds" />
          </mxGeometry>
        </mxCell>
        <mxCell id="-ADNXhnUNOLjZ2h_mKhe-98" value="password  VARCHAR(64) NOT NULL" style="shape=partialRectangle;overflow=hidden;connectable=0;fillColor=none;top=0;left=0;bottom=0;right=0;align=left;spacingLeft=6;fontSize=16;" vertex="1" parent="-ADNXhnUNOLjZ2h_mKhe-96">
          <mxGeometry x="30" width="240" height="20" as="geometry">
            <mxRectangle width="240" height="20" as="alternateBounds" />
          </mxGeometry>
        </mxCell>
        <mxCell id="-ADNXhnUNOLjZ2h_mKhe-99" value="Project" style="shape=table;startSize=30;container=1;collapsible=1;childLayout=tableLayout;fixedRows=1;rowLines=0;fontStyle=1;align=center;resizeLast=1;fontSize=16;" vertex="1" parent="1">
          <mxGeometry x="776" y="526" width="250" height="128.70687875992212" as="geometry" />
        </mxCell>
        <mxCell id="-ADNXhnUNOLjZ2h_mKhe-100" value="" style="shape=partialRectangle;collapsible=0;dropTarget=0;pointerEvents=0;fillColor=none;points=[[0,0.5],[1,0.5]];portConstraint=eastwest;top=0;left=0;right=0;bottom=1;fontSize=16;" vertex="1" parent="-ADNXhnUNOLjZ2h_mKhe-99">
          <mxGeometry y="30" width="250" height="30" as="geometry" />
        </mxCell>
        <mxCell id="-ADNXhnUNOLjZ2h_mKhe-101" value="PK" style="shape=partialRectangle;overflow=hidden;connectable=0;fillColor=none;top=0;left=0;bottom=0;right=0;fontStyle=1;fontSize=16;" vertex="1" parent="-ADNXhnUNOLjZ2h_mKhe-100">
          <mxGeometry width="30" height="30" as="geometry">
            <mxRectangle width="30" height="30" as="alternateBounds" />
          </mxGeometry>
        </mxCell>
        <mxCell id="-ADNXhnUNOLjZ2h_mKhe-102" value="project_id int NOT NULL" style="shape=partialRectangle;overflow=hidden;connectable=0;fillColor=none;top=0;left=0;bottom=0;right=0;align=left;spacingLeft=6;fontStyle=5;fontSize=16;" vertex="1" parent="-ADNXhnUNOLjZ2h_mKhe-100">
          <mxGeometry x="30" width="220" height="30" as="geometry">
            <mxRectangle width="220" height="30" as="alternateBounds" />
          </mxGeometry>
        </mxCell>
        <mxCell id="-ADNXhnUNOLjZ2h_mKhe-103" value="" style="shape=partialRectangle;collapsible=0;dropTarget=0;pointerEvents=0;fillColor=none;points=[[0,0.5],[1,0.5]];portConstraint=eastwest;top=0;left=0;right=0;bottom=0;fontSize=16;" vertex="1" parent="-ADNXhnUNOLjZ2h_mKhe-99">
          <mxGeometry y="60" width="250" height="33" as="geometry" />
        </mxCell>
        <mxCell id="-ADNXhnUNOLjZ2h_mKhe-104" value="FK" style="shape=partialRectangle;overflow=hidden;connectable=0;fillColor=none;top=0;left=0;bottom=0;right=0;fontSize=16;" vertex="1" parent="-ADNXhnUNOLjZ2h_mKhe-103">
          <mxGeometry width="30" height="33" as="geometry">
            <mxRectangle width="30" height="33" as="alternateBounds" />
          </mxGeometry>
        </mxCell>
        <mxCell id="-ADNXhnUNOLjZ2h_mKhe-105" value="manager_id int" style="shape=partialRectangle;overflow=hidden;connectable=0;fillColor=none;top=0;left=0;bottom=0;right=0;align=left;spacingLeft=6;fontSize=16;" vertex="1" parent="-ADNXhnUNOLjZ2h_mKhe-103">
          <mxGeometry x="30" width="220" height="33" as="geometry">
            <mxRectangle width="220" height="33" as="alternateBounds" />
          </mxGeometry>
        </mxCell>
        <mxCell id="-ADNXhnUNOLjZ2h_mKhe-106" style="shape=partialRectangle;collapsible=0;dropTarget=0;pointerEvents=0;fillColor=none;points=[[0,0.5],[1,0.5]];portConstraint=eastwest;top=0;left=0;right=0;bottom=0;fontSize=16;" vertex="1" parent="-ADNXhnUNOLjZ2h_mKhe-99">
          <mxGeometry y="93" width="250" height="26" as="geometry" />
        </mxCell>
        <mxCell id="-ADNXhnUNOLjZ2h_mKhe-107" style="shape=partialRectangle;overflow=hidden;connectable=0;fillColor=none;top=0;left=0;bottom=0;right=0;fontSize=16;" vertex="1" parent="-ADNXhnUNOLjZ2h_mKhe-106">
          <mxGeometry width="30" height="26" as="geometry">
            <mxRectangle width="30" height="26" as="alternateBounds" />
          </mxGeometry>
        </mxCell>
        <mxCell id="-ADNXhnUNOLjZ2h_mKhe-108" value="name VARCHAR(100)" style="shape=partialRectangle;overflow=hidden;connectable=0;fillColor=none;top=0;left=0;bottom=0;right=0;align=left;spacingLeft=6;fontSize=16;" vertex="1" parent="-ADNXhnUNOLjZ2h_mKhe-106">
          <mxGeometry x="30" width="220" height="26" as="geometry">
            <mxRectangle width="220" height="26" as="alternateBounds" />
          </mxGeometry>
        </mxCell>
        <mxCell id="-ADNXhnUNOLjZ2h_mKhe-109" value="TaskType" style="shape=table;startSize=30;container=1;collapsible=1;childLayout=tableLayout;fixedRows=1;rowLines=0;fontStyle=1;align=center;resizeLast=1;fontSize=16;" vertex="1" parent="1">
          <mxGeometry x="1541" y="526" width="267" height="95.61" as="geometry" />
        </mxCell>
        <mxCell id="-ADNXhnUNOLjZ2h_mKhe-110" value="" style="shape=partialRectangle;collapsible=0;dropTarget=0;pointerEvents=0;fillColor=none;points=[[0,0.5],[1,0.5]];portConstraint=eastwest;top=0;left=0;right=0;bottom=1;fontSize=16;" vertex="1" parent="-ADNXhnUNOLjZ2h_mKhe-109">
          <mxGeometry y="30" width="267" height="30" as="geometry" />
        </mxCell>
        <mxCell id="-ADNXhnUNOLjZ2h_mKhe-111" value="PK" style="shape=partialRectangle;overflow=hidden;connectable=0;fillColor=none;top=0;left=0;bottom=0;right=0;fontStyle=1;fontSize=16;" vertex="1" parent="-ADNXhnUNOLjZ2h_mKhe-110">
          <mxGeometry width="30" height="30" as="geometry">
            <mxRectangle width="30" height="30" as="alternateBounds" />
          </mxGeometry>
        </mxCell>
        <mxCell id="-ADNXhnUNOLjZ2h_mKhe-112" value="task_type_id  int NOT NULL" style="shape=partialRectangle;overflow=hidden;connectable=0;fillColor=none;top=0;left=0;bottom=0;right=0;align=left;spacingLeft=6;fontStyle=5;fontSize=16;" vertex="1" parent="-ADNXhnUNOLjZ2h_mKhe-110">
          <mxGeometry x="30" width="237" height="30" as="geometry">
            <mxRectangle width="237" height="30" as="alternateBounds" />
          </mxGeometry>
        </mxCell>
        <mxCell id="-ADNXhnUNOLjZ2h_mKhe-113" value="" style="shape=partialRectangle;collapsible=0;dropTarget=0;pointerEvents=0;fillColor=none;points=[[0,0.5],[1,0.5]];portConstraint=eastwest;top=0;left=0;right=0;bottom=0;fontSize=16;" vertex="1" parent="-ADNXhnUNOLjZ2h_mKhe-109">
          <mxGeometry y="60" width="267" height="26" as="geometry" />
        </mxCell>
        <mxCell id="-ADNXhnUNOLjZ2h_mKhe-114" value="" style="shape=partialRectangle;overflow=hidden;connectable=0;fillColor=none;top=0;left=0;bottom=0;right=0;fontSize=16;" vertex="1" parent="-ADNXhnUNOLjZ2h_mKhe-113">
          <mxGeometry width="30" height="26" as="geometry">
            <mxRectangle width="30" height="26" as="alternateBounds" />
          </mxGeometry>
        </mxCell>
        <mxCell id="-ADNXhnUNOLjZ2h_mKhe-115" value="name VARCHAR(100) NOT NULL" style="shape=partialRectangle;overflow=hidden;connectable=0;fillColor=none;top=0;left=0;bottom=0;right=0;align=left;spacingLeft=6;fontSize=16;" vertex="1" parent="-ADNXhnUNOLjZ2h_mKhe-113">
          <mxGeometry x="30" width="237" height="26" as="geometry">
            <mxRectangle width="237" height="26" as="alternateBounds" />
          </mxGeometry>
        </mxCell>
        <mxCell id="-ADNXhnUNOLjZ2h_mKhe-116" value="Vacation" style="shape=table;startSize=30;container=1;collapsible=1;childLayout=tableLayout;fixedRows=1;rowLines=0;fontStyle=1;align=center;resizeLast=1;fontSize=16;" vertex="1" parent="1">
          <mxGeometry x="168" y="1036" width="250" height="219.68754196166992" as="geometry" />
        </mxCell>
        <mxCell id="-ADNXhnUNOLjZ2h_mKhe-117" value="" style="shape=partialRectangle;collapsible=0;dropTarget=0;pointerEvents=0;fillColor=none;points=[[0,0.5],[1,0.5]];portConstraint=eastwest;top=0;left=0;right=0;bottom=1;fontSize=16;" vertex="1" parent="-ADNXhnUNOLjZ2h_mKhe-116">
          <mxGeometry y="30" width="250" height="30" as="geometry" />
        </mxCell>
        <mxCell id="-ADNXhnUNOLjZ2h_mKhe-118" value="PK" style="shape=partialRectangle;overflow=hidden;connectable=0;fillColor=none;top=0;left=0;bottom=0;right=0;fontStyle=1;fontSize=16;" vertex="1" parent="-ADNXhnUNOLjZ2h_mKhe-117">
          <mxGeometry width="30" height="30" as="geometry">
            <mxRectangle width="30" height="30" as="alternateBounds" />
          </mxGeometry>
        </mxCell>
        <mxCell id="-ADNXhnUNOLjZ2h_mKhe-119" value=" vacation_id int NOT NULL" style="shape=partialRectangle;overflow=hidden;connectable=0;fillColor=none;top=0;left=0;bottom=0;right=0;align=left;spacingLeft=6;fontStyle=5;fontSize=16;" vertex="1" parent="-ADNXhnUNOLjZ2h_mKhe-117">
          <mxGeometry x="30" width="220" height="30" as="geometry">
            <mxRectangle width="220" height="30" as="alternateBounds" />
          </mxGeometry>
        </mxCell>
        <mxCell id="-ADNXhnUNOLjZ2h_mKhe-120" value="" style="shape=partialRectangle;collapsible=0;dropTarget=0;pointerEvents=0;fillColor=none;points=[[0,0.5],[1,0.5]];portConstraint=eastwest;top=0;left=0;right=0;bottom=0;fontSize=16;" vertex="1" parent="-ADNXhnUNOLjZ2h_mKhe-116">
          <mxGeometry y="60" width="250" height="30" as="geometry" />
        </mxCell>
        <mxCell id="-ADNXhnUNOLjZ2h_mKhe-121" value="FK" style="shape=partialRectangle;overflow=hidden;connectable=0;fillColor=none;top=0;left=0;bottom=0;right=0;fontSize=16;" vertex="1" parent="-ADNXhnUNOLjZ2h_mKhe-120">
          <mxGeometry width="30" height="30" as="geometry">
            <mxRectangle width="30" height="30" as="alternateBounds" />
          </mxGeometry>
        </mxCell>
        <mxCell id="-ADNXhnUNOLjZ2h_mKhe-122" value="employee_id int NOT NULL" style="shape=partialRectangle;overflow=hidden;connectable=0;fillColor=none;top=0;left=0;bottom=0;right=0;align=left;spacingLeft=6;fontSize=16;" vertex="1" parent="-ADNXhnUNOLjZ2h_mKhe-120">
          <mxGeometry x="30" width="220" height="30" as="geometry">
            <mxRectangle width="220" height="30" as="alternateBounds" />
          </mxGeometry>
        </mxCell>
        <mxCell id="-ADNXhnUNOLjZ2h_mKhe-123" style="shape=partialRectangle;collapsible=0;dropTarget=0;pointerEvents=0;fillColor=none;points=[[0,0.5],[1,0.5]];portConstraint=eastwest;top=0;left=0;right=0;bottom=0;fontSize=16;" vertex="1" parent="-ADNXhnUNOLjZ2h_mKhe-116">
          <mxGeometry y="90" width="250" height="30" as="geometry" />
        </mxCell>
        <mxCell id="-ADNXhnUNOLjZ2h_mKhe-124" style="shape=partialRectangle;overflow=hidden;connectable=0;fillColor=none;top=0;left=0;bottom=0;right=0;fontSize=16;" vertex="1" parent="-ADNXhnUNOLjZ2h_mKhe-123">
          <mxGeometry width="30" height="30" as="geometry">
            <mxRectangle width="30" height="30" as="alternateBounds" />
          </mxGeometry>
        </mxCell>
        <mxCell id="-ADNXhnUNOLjZ2h_mKhe-125" value="start DATETIME NOT NULL" style="shape=partialRectangle;overflow=hidden;connectable=0;fillColor=none;top=0;left=0;bottom=0;right=0;align=left;spacingLeft=6;fontSize=16;" vertex="1" parent="-ADNXhnUNOLjZ2h_mKhe-123">
          <mxGeometry x="30" width="220" height="30" as="geometry">
            <mxRectangle width="220" height="30" as="alternateBounds" />
          </mxGeometry>
        </mxCell>
        <mxCell id="-ADNXhnUNOLjZ2h_mKhe-126" style="shape=partialRectangle;collapsible=0;dropTarget=0;pointerEvents=0;fillColor=none;points=[[0,0.5],[1,0.5]];portConstraint=eastwest;top=0;left=0;right=0;bottom=0;fontSize=16;" vertex="1" parent="-ADNXhnUNOLjZ2h_mKhe-116">
          <mxGeometry y="120" width="250" height="30" as="geometry" />
        </mxCell>
        <mxCell id="-ADNXhnUNOLjZ2h_mKhe-127" style="shape=partialRectangle;overflow=hidden;connectable=0;fillColor=none;top=0;left=0;bottom=0;right=0;fontSize=16;" vertex="1" parent="-ADNXhnUNOLjZ2h_mKhe-126">
          <mxGeometry width="30" height="30" as="geometry">
            <mxRectangle width="30" height="30" as="alternateBounds" />
          </mxGeometry>
        </mxCell>
        <mxCell id="-ADNXhnUNOLjZ2h_mKhe-128" value="end DATETIME NOT NULL" style="shape=partialRectangle;overflow=hidden;connectable=0;fillColor=none;top=0;left=0;bottom=0;right=0;align=left;spacingLeft=6;fontSize=16;" vertex="1" parent="-ADNXhnUNOLjZ2h_mKhe-126">
          <mxGeometry x="30" width="220" height="30" as="geometry">
            <mxRectangle width="220" height="30" as="alternateBounds" />
          </mxGeometry>
        </mxCell>
        <mxCell id="-ADNXhnUNOLjZ2h_mKhe-129" style="shape=partialRectangle;collapsible=0;dropTarget=0;pointerEvents=0;fillColor=none;points=[[0,0.5],[1,0.5]];portConstraint=eastwest;top=0;left=0;right=0;bottom=0;fontSize=16;" vertex="1" parent="-ADNXhnUNOLjZ2h_mKhe-116">
          <mxGeometry y="150" width="250" height="30" as="geometry" />
        </mxCell>
        <mxCell id="-ADNXhnUNOLjZ2h_mKhe-130" style="shape=partialRectangle;overflow=hidden;connectable=0;fillColor=none;top=0;left=0;bottom=0;right=0;fontSize=16;" vertex="1" parent="-ADNXhnUNOLjZ2h_mKhe-129">
          <mxGeometry width="30" height="30" as="geometry">
            <mxRectangle width="30" height="30" as="alternateBounds" />
          </mxGeometry>
        </mxCell>
        <mxCell id="-ADNXhnUNOLjZ2h_mKhe-131" value="type ENUM" style="shape=partialRectangle;overflow=hidden;connectable=0;fillColor=none;top=0;left=0;bottom=0;right=0;align=left;spacingLeft=6;fontSize=16;" vertex="1" parent="-ADNXhnUNOLjZ2h_mKhe-129">
          <mxGeometry x="30" width="220" height="30" as="geometry">
            <mxRectangle width="220" height="30" as="alternateBounds" />
          </mxGeometry>
        </mxCell>
        <mxCell id="-ADNXhnUNOLjZ2h_mKhe-132" style="shape=partialRectangle;collapsible=0;dropTarget=0;pointerEvents=0;fillColor=none;points=[[0,0.5],[1,0.5]];portConstraint=eastwest;top=0;left=0;right=0;bottom=0;fontSize=16;" vertex="1" parent="-ADNXhnUNOLjZ2h_mKhe-116">
          <mxGeometry y="180" width="250" height="30" as="geometry" />
        </mxCell>
        <mxCell id="-ADNXhnUNOLjZ2h_mKhe-133" style="shape=partialRectangle;overflow=hidden;connectable=0;fillColor=none;top=0;left=0;bottom=0;right=0;fontSize=16;" vertex="1" parent="-ADNXhnUNOLjZ2h_mKhe-132">
          <mxGeometry width="30" height="30" as="geometry">
            <mxRectangle width="30" height="30" as="alternateBounds" />
          </mxGeometry>
        </mxCell>
        <mxCell id="-ADNXhnUNOLjZ2h_mKhe-134" value="status ENUM" style="shape=partialRectangle;overflow=hidden;connectable=0;fillColor=none;top=0;left=0;bottom=0;right=0;align=left;spacingLeft=6;fontSize=16;" vertex="1" parent="-ADNXhnUNOLjZ2h_mKhe-132">
          <mxGeometry x="30" width="220" height="30" as="geometry">
            <mxRectangle width="220" height="30" as="alternateBounds" />
          </mxGeometry>
        </mxCell>
        <mxCell id="-ADNXhnUNOLjZ2h_mKhe-135" value="BusinessTrip" style="shape=table;startSize=30;container=1;collapsible=1;childLayout=tableLayout;fixedRows=1;rowLines=0;fontStyle=1;align=center;resizeLast=1;fontSize=16;" vertex="1" parent="1">
          <mxGeometry x="456" y="1563.69" width="289" height="195.38" as="geometry" />
        </mxCell>
        <mxCell id="-ADNXhnUNOLjZ2h_mKhe-136" value="" style="shape=partialRectangle;collapsible=0;dropTarget=0;pointerEvents=0;fillColor=none;points=[[0,0.5],[1,0.5]];portConstraint=eastwest;top=0;left=0;right=0;bottom=1;fontSize=16;" vertex="1" parent="-ADNXhnUNOLjZ2h_mKhe-135">
          <mxGeometry y="30" width="289" height="30" as="geometry" />
        </mxCell>
        <mxCell id="-ADNXhnUNOLjZ2h_mKhe-137" value="PK" style="shape=partialRectangle;overflow=hidden;connectable=0;fillColor=none;top=0;left=0;bottom=0;right=0;fontStyle=1;fontSize=16;" vertex="1" parent="-ADNXhnUNOLjZ2h_mKhe-136">
          <mxGeometry width="30" height="30" as="geometry">
            <mxRectangle width="30" height="30" as="alternateBounds" />
          </mxGeometry>
        </mxCell>
        <mxCell id="-ADNXhnUNOLjZ2h_mKhe-138" value="business_trip_id int NOT NULL" style="shape=partialRectangle;overflow=hidden;connectable=0;fillColor=none;top=0;left=0;bottom=0;right=0;align=left;spacingLeft=6;fontStyle=5;fontSize=16;" vertex="1" parent="-ADNXhnUNOLjZ2h_mKhe-136">
          <mxGeometry x="30" width="259" height="30" as="geometry">
            <mxRectangle width="259" height="30" as="alternateBounds" />
          </mxGeometry>
        </mxCell>
        <mxCell id="-ADNXhnUNOLjZ2h_mKhe-139" value="" style="shape=partialRectangle;collapsible=0;dropTarget=0;pointerEvents=0;fillColor=none;points=[[0,0.5],[1,0.5]];portConstraint=eastwest;top=0;left=0;right=0;bottom=0;fontSize=16;" vertex="1" parent="-ADNXhnUNOLjZ2h_mKhe-135">
          <mxGeometry y="60" width="289" height="36" as="geometry" />
        </mxCell>
        <mxCell id="-ADNXhnUNOLjZ2h_mKhe-140" value="" style="shape=partialRectangle;overflow=hidden;connectable=0;fillColor=none;top=0;left=0;bottom=0;right=0;fontSize=16;" vertex="1" parent="-ADNXhnUNOLjZ2h_mKhe-139">
          <mxGeometry width="30" height="36" as="geometry">
            <mxRectangle width="30" height="36" as="alternateBounds" />
          </mxGeometry>
        </mxCell>
        <mxCell id="-ADNXhnUNOLjZ2h_mKhe-141" value="start DATETIME NOT NULL" style="shape=partialRectangle;overflow=hidden;connectable=0;fillColor=none;top=0;left=0;bottom=0;right=0;align=left;spacingLeft=6;fontSize=16;" vertex="1" parent="-ADNXhnUNOLjZ2h_mKhe-139">
          <mxGeometry x="30" width="259" height="36" as="geometry">
            <mxRectangle width="259" height="36" as="alternateBounds" />
          </mxGeometry>
        </mxCell>
        <mxCell id="-ADNXhnUNOLjZ2h_mKhe-142" style="shape=partialRectangle;collapsible=0;dropTarget=0;pointerEvents=0;fillColor=none;points=[[0,0.5],[1,0.5]];portConstraint=eastwest;top=0;left=0;right=0;bottom=0;fontSize=16;" vertex="1" parent="-ADNXhnUNOLjZ2h_mKhe-135">
          <mxGeometry y="96" width="289" height="30" as="geometry" />
        </mxCell>
        <mxCell id="-ADNXhnUNOLjZ2h_mKhe-143" style="shape=partialRectangle;overflow=hidden;connectable=0;fillColor=none;top=0;left=0;bottom=0;right=0;fontSize=16;" vertex="1" parent="-ADNXhnUNOLjZ2h_mKhe-142">
          <mxGeometry width="30" height="30" as="geometry">
            <mxRectangle width="30" height="30" as="alternateBounds" />
          </mxGeometry>
        </mxCell>
        <mxCell id="-ADNXhnUNOLjZ2h_mKhe-144" value="end DATETIME" style="shape=partialRectangle;overflow=hidden;connectable=0;fillColor=none;top=0;left=0;bottom=0;right=0;align=left;spacingLeft=6;fontSize=16;" vertex="1" parent="-ADNXhnUNOLjZ2h_mKhe-142">
          <mxGeometry x="30" width="259" height="30" as="geometry">
            <mxRectangle width="259" height="30" as="alternateBounds" />
          </mxGeometry>
        </mxCell>
        <mxCell id="-ADNXhnUNOLjZ2h_mKhe-145" style="shape=partialRectangle;collapsible=0;dropTarget=0;pointerEvents=0;fillColor=none;points=[[0,0.5],[1,0.5]];portConstraint=eastwest;top=0;left=0;right=0;bottom=0;fontSize=16;" vertex="1" parent="-ADNXhnUNOLjZ2h_mKhe-135">
          <mxGeometry y="126" width="289" height="30" as="geometry" />
        </mxCell>
        <mxCell id="-ADNXhnUNOLjZ2h_mKhe-146" style="shape=partialRectangle;overflow=hidden;connectable=0;fillColor=none;top=0;left=0;bottom=0;right=0;fontSize=16;" vertex="1" parent="-ADNXhnUNOLjZ2h_mKhe-145">
          <mxGeometry width="30" height="30" as="geometry">
            <mxRectangle width="30" height="30" as="alternateBounds" />
          </mxGeometry>
        </mxCell>
        <mxCell id="-ADNXhnUNOLjZ2h_mKhe-147" value="order  VARCHAR(200)" style="shape=partialRectangle;overflow=hidden;connectable=0;fillColor=none;top=0;left=0;bottom=0;right=0;align=left;spacingLeft=6;fontSize=16;" vertex="1" parent="-ADNXhnUNOLjZ2h_mKhe-145">
          <mxGeometry x="30" width="259" height="30" as="geometry">
            <mxRectangle width="259" height="30" as="alternateBounds" />
          </mxGeometry>
        </mxCell>
        <mxCell id="-ADNXhnUNOLjZ2h_mKhe-148" style="shape=partialRectangle;collapsible=0;dropTarget=0;pointerEvents=0;fillColor=none;points=[[0,0.5],[1,0.5]];portConstraint=eastwest;top=0;left=0;right=0;bottom=0;fontSize=16;" vertex="1" parent="-ADNXhnUNOLjZ2h_mKhe-135">
          <mxGeometry y="156" width="289" height="30" as="geometry" />
        </mxCell>
        <mxCell id="-ADNXhnUNOLjZ2h_mKhe-149" style="shape=partialRectangle;overflow=hidden;connectable=0;fillColor=none;top=0;left=0;bottom=0;right=0;fontSize=16;" vertex="1" parent="-ADNXhnUNOLjZ2h_mKhe-148">
          <mxGeometry width="30" height="30" as="geometry">
            <mxRectangle width="30" height="30" as="alternateBounds" />
          </mxGeometry>
        </mxCell>
        <mxCell id="-ADNXhnUNOLjZ2h_mKhe-150" value="place  VARCHAR(200)" style="shape=partialRectangle;overflow=hidden;connectable=0;fillColor=none;top=0;left=0;bottom=0;right=0;align=left;spacingLeft=6;fontSize=16;" vertex="1" parent="-ADNXhnUNOLjZ2h_mKhe-148">
          <mxGeometry x="30" width="259" height="30" as="geometry">
            <mxRectangle width="259" height="30" as="alternateBounds" />
          </mxGeometry>
        </mxCell>
        <mxCell id="-ADNXhnUNOLjZ2h_mKhe-151" value="Department" style="shape=table;startSize=30;container=1;collapsible=1;childLayout=tableLayout;fixedRows=1;rowLines=0;fontStyle=1;align=center;resizeLast=1;fontSize=16;" vertex="1" parent="1">
          <mxGeometry x="265" y="1341" width="299" height="95.61" as="geometry" />
        </mxCell>
        <mxCell id="-ADNXhnUNOLjZ2h_mKhe-152" value="" style="shape=partialRectangle;collapsible=0;dropTarget=0;pointerEvents=0;fillColor=none;points=[[0,0.5],[1,0.5]];portConstraint=eastwest;top=0;left=0;right=0;bottom=1;fontSize=16;" vertex="1" parent="-ADNXhnUNOLjZ2h_mKhe-151">
          <mxGeometry y="30" width="299" height="30" as="geometry" />
        </mxCell>
        <mxCell id="-ADNXhnUNOLjZ2h_mKhe-153" value="PK" style="shape=partialRectangle;overflow=hidden;connectable=0;fillColor=none;top=0;left=0;bottom=0;right=0;fontStyle=1;fontSize=16;" vertex="1" parent="-ADNXhnUNOLjZ2h_mKhe-152">
          <mxGeometry width="30" height="30" as="geometry">
            <mxRectangle width="30" height="30" as="alternateBounds" />
          </mxGeometry>
        </mxCell>
        <mxCell id="-ADNXhnUNOLjZ2h_mKhe-154" value="department_id int NOT NULL" style="shape=partialRectangle;overflow=hidden;connectable=0;fillColor=none;top=0;left=0;bottom=0;right=0;align=left;spacingLeft=6;fontStyle=5;fontSize=16;" vertex="1" parent="-ADNXhnUNOLjZ2h_mKhe-152">
          <mxGeometry x="30" width="269" height="30" as="geometry">
            <mxRectangle width="269" height="30" as="alternateBounds" />
          </mxGeometry>
        </mxCell>
        <mxCell id="-ADNXhnUNOLjZ2h_mKhe-155" value="" style="shape=partialRectangle;collapsible=0;dropTarget=0;pointerEvents=0;fillColor=none;points=[[0,0.5],[1,0.5]];portConstraint=eastwest;top=0;left=0;right=0;bottom=0;fontSize=16;" vertex="1" parent="-ADNXhnUNOLjZ2h_mKhe-151">
          <mxGeometry y="60" width="299" height="26" as="geometry" />
        </mxCell>
        <mxCell id="-ADNXhnUNOLjZ2h_mKhe-156" value="" style="shape=partialRectangle;overflow=hidden;connectable=0;fillColor=none;top=0;left=0;bottom=0;right=0;fontSize=16;" vertex="1" parent="-ADNXhnUNOLjZ2h_mKhe-155">
          <mxGeometry width="30" height="26" as="geometry">
            <mxRectangle width="30" height="26" as="alternateBounds" />
          </mxGeometry>
        </mxCell>
        <mxCell id="-ADNXhnUNOLjZ2h_mKhe-157" value="name VARCHAR(200) NOT NULL" style="shape=partialRectangle;overflow=hidden;connectable=0;fillColor=none;top=0;left=0;bottom=0;right=0;align=left;spacingLeft=6;fontSize=16;" vertex="1" parent="-ADNXhnUNOLjZ2h_mKhe-155">
          <mxGeometry x="30" width="269" height="26" as="geometry">
            <mxRectangle width="269" height="26" as="alternateBounds" />
          </mxGeometry>
        </mxCell>
        <mxCell id="-ADNXhnUNOLjZ2h_mKhe-158" value="Report" style="shape=table;startSize=30;container=1;collapsible=1;childLayout=tableLayout;fixedRows=1;rowLines=0;fontStyle=1;align=center;resizeLast=1;fontSize=16;" vertex="1" parent="1">
          <mxGeometry x="1288" y="972" width="312" height="205.3" as="geometry" />
        </mxCell>
        <mxCell id="-ADNXhnUNOLjZ2h_mKhe-159" value="" style="shape=partialRectangle;collapsible=0;dropTarget=0;pointerEvents=0;fillColor=none;points=[[0,0.5],[1,0.5]];portConstraint=eastwest;top=0;left=0;right=0;bottom=1;fontSize=16;" vertex="1" parent="-ADNXhnUNOLjZ2h_mKhe-158">
          <mxGeometry y="30" width="312" height="30" as="geometry" />
        </mxCell>
        <mxCell id="-ADNXhnUNOLjZ2h_mKhe-160" value="PK" style="shape=partialRectangle;overflow=hidden;connectable=0;fillColor=none;top=0;left=0;bottom=0;right=0;fontStyle=1;fontSize=16;" vertex="1" parent="-ADNXhnUNOLjZ2h_mKhe-159">
          <mxGeometry width="30" height="30" as="geometry">
            <mxRectangle width="30" height="30" as="alternateBounds" />
          </mxGeometry>
        </mxCell>
        <mxCell id="-ADNXhnUNOLjZ2h_mKhe-161" value="report_id int NOT NULL" style="shape=partialRectangle;overflow=hidden;connectable=0;fillColor=none;top=0;left=0;bottom=0;right=0;align=left;spacingLeft=6;fontStyle=5;fontSize=16;" vertex="1" parent="-ADNXhnUNOLjZ2h_mKhe-159">
          <mxGeometry x="30" width="282" height="30" as="geometry">
            <mxRectangle width="282" height="30" as="alternateBounds" />
          </mxGeometry>
        </mxCell>
        <mxCell id="-ADNXhnUNOLjZ2h_mKhe-162" value="" style="shape=partialRectangle;collapsible=0;dropTarget=0;pointerEvents=0;fillColor=none;points=[[0,0.5],[1,0.5]];portConstraint=eastwest;top=0;left=0;right=0;bottom=0;fontSize=16;" vertex="1" parent="-ADNXhnUNOLjZ2h_mKhe-158">
          <mxGeometry y="60" width="312" height="32" as="geometry" />
        </mxCell>
        <mxCell id="-ADNXhnUNOLjZ2h_mKhe-163" value="FK" style="shape=partialRectangle;overflow=hidden;connectable=0;fillColor=none;top=0;left=0;bottom=0;right=0;fontSize=16;" vertex="1" parent="-ADNXhnUNOLjZ2h_mKhe-162">
          <mxGeometry width="30" height="32" as="geometry">
            <mxRectangle width="30" height="32" as="alternateBounds" />
          </mxGeometry>
        </mxCell>
        <mxCell id="-ADNXhnUNOLjZ2h_mKhe-164" value="user_id int NOT NULL" style="shape=partialRectangle;overflow=hidden;connectable=0;fillColor=none;top=0;left=0;bottom=0;right=0;align=left;spacingLeft=6;fontSize=16;" vertex="1" parent="-ADNXhnUNOLjZ2h_mKhe-162">
          <mxGeometry x="30" width="282" height="32" as="geometry">
            <mxRectangle width="282" height="32" as="alternateBounds" />
          </mxGeometry>
        </mxCell>
        <mxCell id="-ADNXhnUNOLjZ2h_mKhe-165" style="shape=partialRectangle;collapsible=0;dropTarget=0;pointerEvents=0;fillColor=none;points=[[0,0.5],[1,0.5]];portConstraint=eastwest;top=0;left=0;right=0;bottom=0;fontSize=16;" vertex="1" parent="-ADNXhnUNOLjZ2h_mKhe-158">
          <mxGeometry y="92" width="312" height="26" as="geometry" />
        </mxCell>
        <mxCell id="-ADNXhnUNOLjZ2h_mKhe-166" style="shape=partialRectangle;overflow=hidden;connectable=0;fillColor=none;top=0;left=0;bottom=0;right=0;fontSize=16;" vertex="1" parent="-ADNXhnUNOLjZ2h_mKhe-165">
          <mxGeometry width="30" height="26" as="geometry">
            <mxRectangle width="30" height="26" as="alternateBounds" />
          </mxGeometry>
        </mxCell>
        <mxCell id="-ADNXhnUNOLjZ2h_mKhe-167" value="date DATE NOT NULL" style="shape=partialRectangle;overflow=hidden;connectable=0;fillColor=none;top=0;left=0;bottom=0;right=0;align=left;spacingLeft=6;fontSize=16;" vertex="1" parent="-ADNXhnUNOLjZ2h_mKhe-165">
          <mxGeometry x="30" width="282" height="26" as="geometry">
            <mxRectangle width="282" height="26" as="alternateBounds" />
          </mxGeometry>
        </mxCell>
        <mxCell id="-ADNXhnUNOLjZ2h_mKhe-168" style="shape=partialRectangle;collapsible=0;dropTarget=0;pointerEvents=0;fillColor=none;points=[[0,0.5],[1,0.5]];portConstraint=eastwest;top=0;left=0;right=0;bottom=0;fontSize=16;" vertex="1" parent="-ADNXhnUNOLjZ2h_mKhe-158">
          <mxGeometry y="118" width="312" height="26" as="geometry" />
        </mxCell>
        <mxCell id="-ADNXhnUNOLjZ2h_mKhe-169" style="shape=partialRectangle;overflow=hidden;connectable=0;fillColor=none;top=0;left=0;bottom=0;right=0;fontSize=16;" vertex="1" parent="-ADNXhnUNOLjZ2h_mKhe-168">
          <mxGeometry width="30" height="26" as="geometry">
            <mxRectangle width="30" height="26" as="alternateBounds" />
          </mxGeometry>
        </mxCell>
        <mxCell id="-ADNXhnUNOLjZ2h_mKhe-170" value="creation_time DATETIME NOT NULL" style="shape=partialRectangle;overflow=hidden;connectable=0;fillColor=none;top=0;left=0;bottom=0;right=0;align=left;spacingLeft=6;fontSize=16;" vertex="1" parent="-ADNXhnUNOLjZ2h_mKhe-168">
          <mxGeometry x="30" width="282" height="26" as="geometry">
            <mxRectangle width="282" height="26" as="alternateBounds" />
          </mxGeometry>
        </mxCell>
        <mxCell id="-ADNXhnUNOLjZ2h_mKhe-171" style="shape=partialRectangle;collapsible=0;dropTarget=0;pointerEvents=0;fillColor=none;points=[[0,0.5],[1,0.5]];portConstraint=eastwest;top=0;left=0;right=0;bottom=0;fontSize=16;" vertex="1" parent="-ADNXhnUNOLjZ2h_mKhe-158">
          <mxGeometry y="144" width="312" height="26" as="geometry" />
        </mxCell>
        <mxCell id="-ADNXhnUNOLjZ2h_mKhe-172" style="shape=partialRectangle;overflow=hidden;connectable=0;fillColor=none;top=0;left=0;bottom=0;right=0;fontSize=16;" vertex="1" parent="-ADNXhnUNOLjZ2h_mKhe-171">
          <mxGeometry width="30" height="26" as="geometry">
            <mxRectangle width="30" height="26" as="alternateBounds" />
          </mxGeometry>
        </mxCell>
        <mxCell id="-ADNXhnUNOLjZ2h_mKhe-173" value="start_working_day TIME NOT NULL" style="shape=partialRectangle;overflow=hidden;connectable=0;fillColor=none;top=0;left=0;bottom=0;right=0;align=left;spacingLeft=6;fontSize=16;" vertex="1" parent="-ADNXhnUNOLjZ2h_mKhe-171">
          <mxGeometry x="30" width="282" height="26" as="geometry">
            <mxRectangle width="282" height="26" as="alternateBounds" />
          </mxGeometry>
        </mxCell>
        <mxCell id="-ADNXhnUNOLjZ2h_mKhe-174" style="shape=partialRectangle;collapsible=0;dropTarget=0;pointerEvents=0;fillColor=none;points=[[0,0.5],[1,0.5]];portConstraint=eastwest;top=0;left=0;right=0;bottom=0;fontSize=16;" vertex="1" parent="-ADNXhnUNOLjZ2h_mKhe-158">
          <mxGeometry y="170" width="312" height="26" as="geometry" />
        </mxCell>
        <mxCell id="-ADNXhnUNOLjZ2h_mKhe-175" style="shape=partialRectangle;overflow=hidden;connectable=0;fillColor=none;top=0;left=0;bottom=0;right=0;fontSize=16;" vertex="1" parent="-ADNXhnUNOLjZ2h_mKhe-174">
          <mxGeometry width="30" height="26" as="geometry">
            <mxRectangle width="30" height="26" as="alternateBounds" />
          </mxGeometry>
        </mxCell>
        <mxCell id="-ADNXhnUNOLjZ2h_mKhe-176" value="end_working_day TIME NOT NULL" style="shape=partialRectangle;overflow=hidden;connectable=0;fillColor=none;top=0;left=0;bottom=0;right=0;align=left;spacingLeft=6;fontSize=16;" vertex="1" parent="-ADNXhnUNOLjZ2h_mKhe-174">
          <mxGeometry x="30" width="282" height="26" as="geometry">
            <mxRectangle width="282" height="26" as="alternateBounds" />
          </mxGeometry>
        </mxCell>
        <mxCell id="-ADNXhnUNOLjZ2h_mKhe-177" value="ReportItem" style="shape=table;startSize=30;container=1;collapsible=1;childLayout=tableLayout;fixedRows=1;rowLines=0;fontStyle=1;align=center;resizeLast=1;fontSize=16;" vertex="1" parent="1">
          <mxGeometry x="1665" y="939.16" width="286" height="228.05" as="geometry" />
        </mxCell>
        <mxCell id="-ADNXhnUNOLjZ2h_mKhe-178" value="" style="shape=partialRectangle;collapsible=0;dropTarget=0;pointerEvents=0;fillColor=none;points=[[0,0.5],[1,0.5]];portConstraint=eastwest;top=0;left=0;right=0;bottom=1;fontSize=16;" vertex="1" parent="-ADNXhnUNOLjZ2h_mKhe-177">
          <mxGeometry y="30" width="286" height="30" as="geometry" />
        </mxCell>
        <mxCell id="-ADNXhnUNOLjZ2h_mKhe-179" value="PK" style="shape=partialRectangle;overflow=hidden;connectable=0;fillColor=none;top=0;left=0;bottom=0;right=0;fontStyle=1;fontSize=16;" vertex="1" parent="-ADNXhnUNOLjZ2h_mKhe-178">
          <mxGeometry width="30" height="30" as="geometry">
            <mxRectangle width="30" height="30" as="alternateBounds" />
          </mxGeometry>
        </mxCell>
        <mxCell id="-ADNXhnUNOLjZ2h_mKhe-180" value="report_item_id int NOT NULL" style="shape=partialRectangle;overflow=hidden;connectable=0;fillColor=none;top=0;left=0;bottom=0;right=0;align=left;spacingLeft=6;fontStyle=5;fontSize=16;" vertex="1" parent="-ADNXhnUNOLjZ2h_mKhe-178">
          <mxGeometry x="30" width="256" height="30" as="geometry">
            <mxRectangle width="256" height="30" as="alternateBounds" />
          </mxGeometry>
        </mxCell>
        <mxCell id="-ADNXhnUNOLjZ2h_mKhe-181" value="" style="shape=partialRectangle;collapsible=0;dropTarget=0;pointerEvents=0;fillColor=none;points=[[0,0.5],[1,0.5]];portConstraint=eastwest;top=0;left=0;right=0;bottom=0;fontSize=16;" vertex="1" parent="-ADNXhnUNOLjZ2h_mKhe-177">
          <mxGeometry y="60" width="286" height="32" as="geometry" />
        </mxCell>
        <mxCell id="-ADNXhnUNOLjZ2h_mKhe-182" value="FK" style="shape=partialRectangle;overflow=hidden;connectable=0;fillColor=none;top=0;left=0;bottom=0;right=0;fontSize=16;" vertex="1" parent="-ADNXhnUNOLjZ2h_mKhe-181">
          <mxGeometry width="30" height="32" as="geometry">
            <mxRectangle width="30" height="32" as="alternateBounds" />
          </mxGeometry>
        </mxCell>
        <mxCell id="-ADNXhnUNOLjZ2h_mKhe-183" value="report_id int NOT NULL" style="shape=partialRectangle;overflow=hidden;connectable=0;fillColor=none;top=0;left=0;bottom=0;right=0;align=left;spacingLeft=6;fontSize=16;" vertex="1" parent="-ADNXhnUNOLjZ2h_mKhe-181">
          <mxGeometry x="30" width="256" height="32" as="geometry">
            <mxRectangle width="256" height="32" as="alternateBounds" />
          </mxGeometry>
        </mxCell>
        <mxCell id="-ADNXhnUNOLjZ2h_mKhe-184" style="shape=partialRectangle;collapsible=0;dropTarget=0;pointerEvents=0;fillColor=none;points=[[0,0.5],[1,0.5]];portConstraint=eastwest;top=0;left=0;right=0;bottom=0;fontSize=16;" vertex="1" parent="-ADNXhnUNOLjZ2h_mKhe-177">
          <mxGeometry y="92" width="286" height="23" as="geometry" />
        </mxCell>
        <mxCell id="-ADNXhnUNOLjZ2h_mKhe-185" value="FK" style="shape=partialRectangle;overflow=hidden;connectable=0;fillColor=none;top=0;left=0;bottom=0;right=0;fontSize=16;" vertex="1" parent="-ADNXhnUNOLjZ2h_mKhe-184">
          <mxGeometry width="30" height="23" as="geometry">
            <mxRectangle width="30" height="23" as="alternateBounds" />
          </mxGeometry>
        </mxCell>
        <mxCell id="-ADNXhnUNOLjZ2h_mKhe-186" value="task_id int" style="shape=partialRectangle;overflow=hidden;connectable=0;fillColor=none;top=0;left=0;bottom=0;right=0;align=left;spacingLeft=6;fontSize=16;" vertex="1" parent="-ADNXhnUNOLjZ2h_mKhe-184">
          <mxGeometry x="30" width="256" height="23" as="geometry">
            <mxRectangle width="256" height="23" as="alternateBounds" />
          </mxGeometry>
        </mxCell>
        <mxCell id="-ADNXhnUNOLjZ2h_mKhe-187" style="shape=partialRectangle;collapsible=0;dropTarget=0;pointerEvents=0;fillColor=none;points=[[0,0.5],[1,0.5]];portConstraint=eastwest;top=0;left=0;right=0;bottom=0;fontSize=16;" vertex="1" parent="-ADNXhnUNOLjZ2h_mKhe-177">
          <mxGeometry y="115" width="286" height="26" as="geometry" />
        </mxCell>
        <mxCell id="-ADNXhnUNOLjZ2h_mKhe-188" value="FK" style="shape=partialRectangle;overflow=hidden;connectable=0;fillColor=none;top=0;left=0;bottom=0;right=0;fontSize=16;" vertex="1" parent="-ADNXhnUNOLjZ2h_mKhe-187">
          <mxGeometry width="30" height="26" as="geometry">
            <mxRectangle width="30" height="26" as="alternateBounds" />
          </mxGeometry>
        </mxCell>
        <mxCell id="-ADNXhnUNOLjZ2h_mKhe-189" value="report_item_type_id int NOT NULL" style="shape=partialRectangle;overflow=hidden;connectable=0;fillColor=none;top=0;left=0;bottom=0;right=0;align=left;spacingLeft=6;fontSize=16;" vertex="1" parent="-ADNXhnUNOLjZ2h_mKhe-187">
          <mxGeometry x="30" width="256" height="26" as="geometry">
            <mxRectangle width="256" height="26" as="alternateBounds" />
          </mxGeometry>
        </mxCell>
        <mxCell id="-ADNXhnUNOLjZ2h_mKhe-190" style="shape=partialRectangle;collapsible=0;dropTarget=0;pointerEvents=0;fillColor=none;points=[[0,0.5],[1,0.5]];portConstraint=eastwest;top=0;left=0;right=0;bottom=0;fontSize=16;" vertex="1" parent="-ADNXhnUNOLjZ2h_mKhe-177">
          <mxGeometry y="141" width="286" height="26" as="geometry" />
        </mxCell>
        <mxCell id="-ADNXhnUNOLjZ2h_mKhe-191" style="shape=partialRectangle;overflow=hidden;connectable=0;fillColor=none;top=0;left=0;bottom=0;right=0;fontSize=16;" vertex="1" parent="-ADNXhnUNOLjZ2h_mKhe-190">
          <mxGeometry width="30" height="26" as="geometry">
            <mxRectangle width="30" height="26" as="alternateBounds" />
          </mxGeometry>
        </mxCell>
        <mxCell id="-ADNXhnUNOLjZ2h_mKhe-192" value="start  TIME NOT NULL" style="shape=partialRectangle;overflow=hidden;connectable=0;fillColor=none;top=0;left=0;bottom=0;right=0;align=left;spacingLeft=6;fontSize=16;" vertex="1" parent="-ADNXhnUNOLjZ2h_mKhe-190">
          <mxGeometry x="30" width="256" height="26" as="geometry">
            <mxRectangle width="256" height="26" as="alternateBounds" />
          </mxGeometry>
        </mxCell>
        <mxCell id="-ADNXhnUNOLjZ2h_mKhe-193" style="shape=partialRectangle;collapsible=0;dropTarget=0;pointerEvents=0;fillColor=none;points=[[0,0.5],[1,0.5]];portConstraint=eastwest;top=0;left=0;right=0;bottom=0;fontSize=16;" vertex="1" parent="-ADNXhnUNOLjZ2h_mKhe-177">
          <mxGeometry y="167" width="286" height="26" as="geometry" />
        </mxCell>
        <mxCell id="-ADNXhnUNOLjZ2h_mKhe-194" style="shape=partialRectangle;overflow=hidden;connectable=0;fillColor=none;top=0;left=0;bottom=0;right=0;fontSize=16;" vertex="1" parent="-ADNXhnUNOLjZ2h_mKhe-193">
          <mxGeometry width="30" height="26" as="geometry">
            <mxRectangle width="30" height="26" as="alternateBounds" />
          </mxGeometry>
        </mxCell>
        <mxCell id="-ADNXhnUNOLjZ2h_mKhe-195" value="end  TIME NOT NULL" style="shape=partialRectangle;overflow=hidden;connectable=0;fillColor=none;top=0;left=0;bottom=0;right=0;align=left;spacingLeft=6;fontSize=16;" vertex="1" parent="-ADNXhnUNOLjZ2h_mKhe-193">
          <mxGeometry x="30" width="256" height="26" as="geometry">
            <mxRectangle width="256" height="26" as="alternateBounds" />
          </mxGeometry>
        </mxCell>
        <mxCell id="-ADNXhnUNOLjZ2h_mKhe-196" style="shape=partialRectangle;collapsible=0;dropTarget=0;pointerEvents=0;fillColor=none;points=[[0,0.5],[1,0.5]];portConstraint=eastwest;top=0;left=0;right=0;bottom=0;fontSize=16;" vertex="1" parent="-ADNXhnUNOLjZ2h_mKhe-177">
          <mxGeometry y="193" width="286" height="26" as="geometry" />
        </mxCell>
        <mxCell id="-ADNXhnUNOLjZ2h_mKhe-197" style="shape=partialRectangle;overflow=hidden;connectable=0;fillColor=none;top=0;left=0;bottom=0;right=0;fontSize=16;" vertex="1" parent="-ADNXhnUNOLjZ2h_mKhe-196">
          <mxGeometry width="30" height="26" as="geometry">
            <mxRectangle width="30" height="26" as="alternateBounds" />
          </mxGeometry>
        </mxCell>
        <mxCell id="-ADNXhnUNOLjZ2h_mKhe-198" value="text VARCHAR(100)" style="shape=partialRectangle;overflow=hidden;connectable=0;fillColor=none;top=0;left=0;bottom=0;right=0;align=left;spacingLeft=6;fontSize=16;" vertex="1" parent="-ADNXhnUNOLjZ2h_mKhe-196">
          <mxGeometry x="30" width="256" height="26" as="geometry">
            <mxRectangle width="256" height="26" as="alternateBounds" />
          </mxGeometry>
        </mxCell>
        <mxCell id="-ADNXhnUNOLjZ2h_mKhe-199" value="ReportItemType" style="shape=table;startSize=30;container=1;collapsible=1;childLayout=tableLayout;fixedRows=1;rowLines=0;fontStyle=1;align=center;resizeLast=1;fontSize=16;" vertex="1" parent="1">
          <mxGeometry x="2000" y="939.16" width="320" height="121.61" as="geometry" />
        </mxCell>
        <mxCell id="-ADNXhnUNOLjZ2h_mKhe-200" value="" style="shape=partialRectangle;collapsible=0;dropTarget=0;pointerEvents=0;fillColor=none;points=[[0,0.5],[1,0.5]];portConstraint=eastwest;top=0;left=0;right=0;bottom=1;fontSize=16;" vertex="1" parent="-ADNXhnUNOLjZ2h_mKhe-199">
          <mxGeometry y="30" width="320" height="30" as="geometry" />
        </mxCell>
        <mxCell id="-ADNXhnUNOLjZ2h_mKhe-201" value="PK" style="shape=partialRectangle;overflow=hidden;connectable=0;fillColor=none;top=0;left=0;bottom=0;right=0;fontStyle=1;fontSize=16;" vertex="1" parent="-ADNXhnUNOLjZ2h_mKhe-200">
          <mxGeometry width="30" height="30" as="geometry">
            <mxRectangle width="30" height="30" as="alternateBounds" />
          </mxGeometry>
        </mxCell>
        <mxCell id="-ADNXhnUNOLjZ2h_mKhe-202" value=" report_item_type_id int NOT NULL" style="shape=partialRectangle;overflow=hidden;connectable=0;fillColor=none;top=0;left=0;bottom=0;right=0;align=left;spacingLeft=6;fontStyle=5;fontSize=16;" vertex="1" parent="-ADNXhnUNOLjZ2h_mKhe-200">
          <mxGeometry x="30" width="290" height="30" as="geometry">
            <mxRectangle width="290" height="30" as="alternateBounds" />
          </mxGeometry>
        </mxCell>
        <mxCell id="-ADNXhnUNOLjZ2h_mKhe-203" value="" style="shape=partialRectangle;collapsible=0;dropTarget=0;pointerEvents=0;fillColor=none;points=[[0,0.5],[1,0.5]];portConstraint=eastwest;top=0;left=0;right=0;bottom=0;fontSize=16;" vertex="1" parent="-ADNXhnUNOLjZ2h_mKhe-199">
          <mxGeometry y="60" width="320" height="26" as="geometry" />
        </mxCell>
        <mxCell id="-ADNXhnUNOLjZ2h_mKhe-204" value="" style="shape=partialRectangle;overflow=hidden;connectable=0;fillColor=none;top=0;left=0;bottom=0;right=0;fontSize=16;" vertex="1" parent="-ADNXhnUNOLjZ2h_mKhe-203">
          <mxGeometry width="30" height="26" as="geometry">
            <mxRectangle width="30" height="26" as="alternateBounds" />
          </mxGeometry>
        </mxCell>
        <mxCell id="-ADNXhnUNOLjZ2h_mKhe-205" value="name VARCHAR(100) NOT NULL" style="shape=partialRectangle;overflow=hidden;connectable=0;fillColor=none;top=0;left=0;bottom=0;right=0;align=left;spacingLeft=6;fontSize=16;" vertex="1" parent="-ADNXhnUNOLjZ2h_mKhe-203">
          <mxGeometry x="30" width="290" height="26" as="geometry">
            <mxRectangle width="290" height="26" as="alternateBounds" />
          </mxGeometry>
        </mxCell>
        <mxCell id="-ADNXhnUNOLjZ2h_mKhe-206" style="shape=partialRectangle;collapsible=0;dropTarget=0;pointerEvents=0;fillColor=none;points=[[0,0.5],[1,0.5]];portConstraint=eastwest;top=0;left=0;right=0;bottom=0;fontSize=16;" vertex="1" parent="-ADNXhnUNOLjZ2h_mKhe-199">
          <mxGeometry y="86" width="320" height="26" as="geometry" />
        </mxCell>
        <mxCell id="-ADNXhnUNOLjZ2h_mKhe-207" style="shape=partialRectangle;overflow=hidden;connectable=0;fillColor=none;top=0;left=0;bottom=0;right=0;fontSize=16;" vertex="1" parent="-ADNXhnUNOLjZ2h_mKhe-206">
          <mxGeometry width="30" height="26" as="geometry">
            <mxRectangle width="30" height="26" as="alternateBounds" />
          </mxGeometry>
        </mxCell>
        <mxCell id="-ADNXhnUNOLjZ2h_mKhe-208" value=" is_working_time BIT(1) NOT NULL" style="shape=partialRectangle;overflow=hidden;connectable=0;fillColor=none;top=0;left=0;bottom=0;right=0;align=left;spacingLeft=6;fontSize=16;" vertex="1" parent="-ADNXhnUNOLjZ2h_mKhe-206">
          <mxGeometry x="30" width="290" height="26" as="geometry">
            <mxRectangle width="290" height="26" as="alternateBounds" />
          </mxGeometry>
        </mxCell>
        <mxCell id="-ADNXhnUNOLjZ2h_mKhe-209" value="WorkSchedule" style="shape=table;startSize=30;container=1;collapsible=1;childLayout=tableLayout;fixedRows=1;rowLines=0;fontStyle=1;align=center;resizeLast=1;fontSize=16;" vertex="1" parent="1">
          <mxGeometry x="1255" y="1358" width="350" height="199.61" as="geometry" />
        </mxCell>
        <mxCell id="-ADNXhnUNOLjZ2h_mKhe-210" value="" style="shape=partialRectangle;collapsible=0;dropTarget=0;pointerEvents=0;fillColor=none;points=[[0,0.5],[1,0.5]];portConstraint=eastwest;top=0;left=0;right=0;bottom=1;fontSize=16;" vertex="1" parent="-ADNXhnUNOLjZ2h_mKhe-209">
          <mxGeometry y="30" width="350" height="30" as="geometry" />
        </mxCell>
        <mxCell id="-ADNXhnUNOLjZ2h_mKhe-211" value="PK" style="shape=partialRectangle;overflow=hidden;connectable=0;fillColor=none;top=0;left=0;bottom=0;right=0;fontStyle=1;fontSize=16;" vertex="1" parent="-ADNXhnUNOLjZ2h_mKhe-210">
          <mxGeometry width="30" height="30" as="geometry">
            <mxRectangle width="30" height="30" as="alternateBounds" />
          </mxGeometry>
        </mxCell>
        <mxCell id="-ADNXhnUNOLjZ2h_mKhe-212" value="work_schedule_id int NOT NULL" style="shape=partialRectangle;overflow=hidden;connectable=0;fillColor=none;top=0;left=0;bottom=0;right=0;align=left;spacingLeft=6;fontStyle=5;fontSize=16;" vertex="1" parent="-ADNXhnUNOLjZ2h_mKhe-210">
          <mxGeometry x="30" width="320" height="30" as="geometry">
            <mxRectangle width="320" height="30" as="alternateBounds" />
          </mxGeometry>
        </mxCell>
        <mxCell id="-ADNXhnUNOLjZ2h_mKhe-213" value="" style="shape=partialRectangle;collapsible=0;dropTarget=0;pointerEvents=0;fillColor=none;points=[[0,0.5],[1,0.5]];portConstraint=eastwest;top=0;left=0;right=0;bottom=0;fontSize=16;" vertex="1" parent="-ADNXhnUNOLjZ2h_mKhe-209">
          <mxGeometry y="60" width="350" height="26" as="geometry" />
        </mxCell>
        <mxCell id="-ADNXhnUNOLjZ2h_mKhe-214" value="" style="shape=partialRectangle;overflow=hidden;connectable=0;fillColor=none;top=0;left=0;bottom=0;right=0;fontSize=16;" vertex="1" parent="-ADNXhnUNOLjZ2h_mKhe-213">
          <mxGeometry width="30" height="26" as="geometry">
            <mxRectangle width="30" height="26" as="alternateBounds" />
          </mxGeometry>
        </mxCell>
        <mxCell id="-ADNXhnUNOLjZ2h_mKhe-215" value="start DATETIME NOT NULL" style="shape=partialRectangle;overflow=hidden;connectable=0;fillColor=none;top=0;left=0;bottom=0;right=0;align=left;spacingLeft=6;fontSize=16;" vertex="1" parent="-ADNXhnUNOLjZ2h_mKhe-213">
          <mxGeometry x="30" width="320" height="26" as="geometry">
            <mxRectangle width="320" height="26" as="alternateBounds" />
          </mxGeometry>
        </mxCell>
        <mxCell id="-ADNXhnUNOLjZ2h_mKhe-216" style="shape=partialRectangle;collapsible=0;dropTarget=0;pointerEvents=0;fillColor=none;points=[[0,0.5],[1,0.5]];portConstraint=eastwest;top=0;left=0;right=0;bottom=0;fontSize=16;" vertex="1" parent="-ADNXhnUNOLjZ2h_mKhe-209">
          <mxGeometry y="86" width="350" height="26" as="geometry" />
        </mxCell>
        <mxCell id="-ADNXhnUNOLjZ2h_mKhe-217" style="shape=partialRectangle;overflow=hidden;connectable=0;fillColor=none;top=0;left=0;bottom=0;right=0;fontSize=16;" vertex="1" parent="-ADNXhnUNOLjZ2h_mKhe-216">
          <mxGeometry width="30" height="26" as="geometry">
            <mxRectangle width="30" height="26" as="alternateBounds" />
          </mxGeometry>
        </mxCell>
        <mxCell id="-ADNXhnUNOLjZ2h_mKhe-218" value="is_flexible_schedule BIT(1) NOT NULL" style="shape=partialRectangle;overflow=hidden;connectable=0;fillColor=none;top=0;left=0;bottom=0;right=0;align=left;spacingLeft=6;fontSize=16;" vertex="1" parent="-ADNXhnUNOLjZ2h_mKhe-216">
          <mxGeometry x="30" width="320" height="26" as="geometry">
            <mxRectangle width="320" height="26" as="alternateBounds" />
          </mxGeometry>
        </mxCell>
        <mxCell id="-ADNXhnUNOLjZ2h_mKhe-219" style="shape=partialRectangle;collapsible=0;dropTarget=0;pointerEvents=0;fillColor=none;points=[[0,0.5],[1,0.5]];portConstraint=eastwest;top=0;left=0;right=0;bottom=0;fontSize=16;" vertex="1" parent="-ADNXhnUNOLjZ2h_mKhe-209">
          <mxGeometry y="112" width="350" height="26" as="geometry" />
        </mxCell>
        <mxCell id="-ADNXhnUNOLjZ2h_mKhe-220" style="shape=partialRectangle;overflow=hidden;connectable=0;fillColor=none;top=0;left=0;bottom=0;right=0;fontSize=16;" vertex="1" parent="-ADNXhnUNOLjZ2h_mKhe-219">
          <mxGeometry width="30" height="26" as="geometry">
            <mxRectangle width="30" height="26" as="alternateBounds" />
          </mxGeometry>
        </mxCell>
        <mxCell id="-ADNXhnUNOLjZ2h_mKhe-221" value=" num_of_working_seconds int NOT NULL" style="shape=partialRectangle;overflow=hidden;connectable=0;fillColor=none;top=0;left=0;bottom=0;right=0;align=left;spacingLeft=6;fontSize=16;" vertex="1" parent="-ADNXhnUNOLjZ2h_mKhe-219">
          <mxGeometry x="30" width="320" height="26" as="geometry">
            <mxRectangle width="320" height="26" as="alternateBounds" />
          </mxGeometry>
        </mxCell>
        <mxCell id="-ADNXhnUNOLjZ2h_mKhe-222" style="shape=partialRectangle;collapsible=0;dropTarget=0;pointerEvents=0;fillColor=none;points=[[0,0.5],[1,0.5]];portConstraint=eastwest;top=0;left=0;right=0;bottom=0;fontSize=16;" vertex="1" parent="-ADNXhnUNOLjZ2h_mKhe-209">
          <mxGeometry y="138" width="350" height="26" as="geometry" />
        </mxCell>
        <mxCell id="-ADNXhnUNOLjZ2h_mKhe-223" style="shape=partialRectangle;overflow=hidden;connectable=0;fillColor=none;top=0;left=0;bottom=0;right=0;fontSize=16;" vertex="1" parent="-ADNXhnUNOLjZ2h_mKhe-222">
          <mxGeometry width="30" height="26" as="geometry">
            <mxRectangle width="30" height="26" as="alternateBounds" />
          </mxGeometry>
        </mxCell>
        <mxCell id="-ADNXhnUNOLjZ2h_mKhe-224" value="time_for_lunch TIME" style="shape=partialRectangle;overflow=hidden;connectable=0;fillColor=none;top=0;left=0;bottom=0;right=0;align=left;spacingLeft=6;fontSize=16;" vertex="1" parent="-ADNXhnUNOLjZ2h_mKhe-222">
          <mxGeometry x="30" width="320" height="26" as="geometry">
            <mxRectangle width="320" height="26" as="alternateBounds" />
          </mxGeometry>
        </mxCell>
        <mxCell id="-ADNXhnUNOLjZ2h_mKhe-225" style="shape=partialRectangle;collapsible=0;dropTarget=0;pointerEvents=0;fillColor=none;points=[[0,0.5],[1,0.5]];portConstraint=eastwest;top=0;left=0;right=0;bottom=0;fontSize=16;" vertex="1" parent="-ADNXhnUNOLjZ2h_mKhe-209">
          <mxGeometry y="164" width="350" height="26" as="geometry" />
        </mxCell>
        <mxCell id="-ADNXhnUNOLjZ2h_mKhe-226" style="shape=partialRectangle;overflow=hidden;connectable=0;fillColor=none;top=0;left=0;bottom=0;right=0;fontSize=16;" vertex="1" parent="-ADNXhnUNOLjZ2h_mKhe-225">
          <mxGeometry width="30" height="26" as="geometry">
            <mxRectangle width="30" height="26" as="alternateBounds" />
          </mxGeometry>
        </mxCell>
        <mxCell id="-ADNXhnUNOLjZ2h_mKhe-227" value="lunch_duration_seconds int" style="shape=partialRectangle;overflow=hidden;connectable=0;fillColor=none;top=0;left=0;bottom=0;right=0;align=left;spacingLeft=6;fontSize=16;" vertex="1" parent="-ADNXhnUNOLjZ2h_mKhe-225">
          <mxGeometry x="30" width="320" height="26" as="geometry">
            <mxRectangle width="320" height="26" as="alternateBounds" />
          </mxGeometry>
        </mxCell>
        <mxCell id="-ADNXhnUNOLjZ2h_mKhe-228" value="Holidays" style="shape=table;startSize=30;container=1;collapsible=1;childLayout=tableLayout;fixedRows=1;rowLines=0;fontStyle=1;align=center;resizeLast=1;fontSize=16;" vertex="1" parent="1">
          <mxGeometry x="370" y="663" width="306" height="173.61" as="geometry" />
        </mxCell>
        <mxCell id="-ADNXhnUNOLjZ2h_mKhe-229" value="" style="shape=partialRectangle;collapsible=0;dropTarget=0;pointerEvents=0;fillColor=none;points=[[0,0.5],[1,0.5]];portConstraint=eastwest;top=0;left=0;right=0;bottom=1;fontSize=16;" vertex="1" parent="-ADNXhnUNOLjZ2h_mKhe-228">
          <mxGeometry y="30" width="306" height="30" as="geometry" />
        </mxCell>
        <mxCell id="-ADNXhnUNOLjZ2h_mKhe-230" value="PK" style="shape=partialRectangle;overflow=hidden;connectable=0;fillColor=none;top=0;left=0;bottom=0;right=0;fontStyle=1;fontSize=16;" vertex="1" parent="-ADNXhnUNOLjZ2h_mKhe-229">
          <mxGeometry width="30" height="30" as="geometry">
            <mxRectangle width="30" height="30" as="alternateBounds" />
          </mxGeometry>
        </mxCell>
        <mxCell id="-ADNXhnUNOLjZ2h_mKhe-231" value="holidays_id int NOT NULL" style="shape=partialRectangle;overflow=hidden;connectable=0;fillColor=none;top=0;left=0;bottom=0;right=0;align=left;spacingLeft=6;fontStyle=5;fontSize=16;" vertex="1" parent="-ADNXhnUNOLjZ2h_mKhe-229">
          <mxGeometry x="30" width="276" height="30" as="geometry">
            <mxRectangle width="276" height="30" as="alternateBounds" />
          </mxGeometry>
        </mxCell>
        <mxCell id="-ADNXhnUNOLjZ2h_mKhe-232" value="" style="shape=partialRectangle;collapsible=0;dropTarget=0;pointerEvents=0;fillColor=none;points=[[0,0.5],[1,0.5]];portConstraint=eastwest;top=0;left=0;right=0;bottom=0;fontSize=16;" vertex="1" parent="-ADNXhnUNOLjZ2h_mKhe-228">
          <mxGeometry y="60" width="306" height="26" as="geometry" />
        </mxCell>
        <mxCell id="-ADNXhnUNOLjZ2h_mKhe-233" value="" style="shape=partialRectangle;overflow=hidden;connectable=0;fillColor=none;top=0;left=0;bottom=0;right=0;fontSize=16;" vertex="1" parent="-ADNXhnUNOLjZ2h_mKhe-232">
          <mxGeometry width="30" height="26" as="geometry">
            <mxRectangle width="30" height="26" as="alternateBounds" />
          </mxGeometry>
        </mxCell>
        <mxCell id="-ADNXhnUNOLjZ2h_mKhe-234" value="start DATE NOT NULL" style="shape=partialRectangle;overflow=hidden;connectable=0;fillColor=none;top=0;left=0;bottom=0;right=0;align=left;spacingLeft=6;fontSize=16;" vertex="1" parent="-ADNXhnUNOLjZ2h_mKhe-232">
          <mxGeometry x="30" width="276" height="26" as="geometry">
            <mxRectangle width="276" height="26" as="alternateBounds" />
          </mxGeometry>
        </mxCell>
        <mxCell id="-ADNXhnUNOLjZ2h_mKhe-235" style="shape=partialRectangle;collapsible=0;dropTarget=0;pointerEvents=0;fillColor=none;points=[[0,0.5],[1,0.5]];portConstraint=eastwest;top=0;left=0;right=0;bottom=0;fontSize=16;" vertex="1" parent="-ADNXhnUNOLjZ2h_mKhe-228">
          <mxGeometry y="86" width="306" height="26" as="geometry" />
        </mxCell>
        <mxCell id="-ADNXhnUNOLjZ2h_mKhe-236" style="shape=partialRectangle;overflow=hidden;connectable=0;fillColor=none;top=0;left=0;bottom=0;right=0;fontSize=16;" vertex="1" parent="-ADNXhnUNOLjZ2h_mKhe-235">
          <mxGeometry width="30" height="26" as="geometry">
            <mxRectangle width="30" height="26" as="alternateBounds" />
          </mxGeometry>
        </mxCell>
        <mxCell id="-ADNXhnUNOLjZ2h_mKhe-237" value=" end DATE" style="shape=partialRectangle;overflow=hidden;connectable=0;fillColor=none;top=0;left=0;bottom=0;right=0;align=left;spacingLeft=6;fontSize=16;" vertex="1" parent="-ADNXhnUNOLjZ2h_mKhe-235">
          <mxGeometry x="30" width="276" height="26" as="geometry">
            <mxRectangle width="276" height="26" as="alternateBounds" />
          </mxGeometry>
        </mxCell>
        <mxCell id="-ADNXhnUNOLjZ2h_mKhe-238" style="shape=partialRectangle;collapsible=0;dropTarget=0;pointerEvents=0;fillColor=none;points=[[0,0.5],[1,0.5]];portConstraint=eastwest;top=0;left=0;right=0;bottom=0;fontSize=16;" vertex="1" parent="-ADNXhnUNOLjZ2h_mKhe-228">
          <mxGeometry y="112" width="306" height="26" as="geometry" />
        </mxCell>
        <mxCell id="-ADNXhnUNOLjZ2h_mKhe-239" style="shape=partialRectangle;overflow=hidden;connectable=0;fillColor=none;top=0;left=0;bottom=0;right=0;fontSize=16;" vertex="1" parent="-ADNXhnUNOLjZ2h_mKhe-238">
          <mxGeometry width="30" height="26" as="geometry">
            <mxRectangle width="30" height="26" as="alternateBounds" />
          </mxGeometry>
        </mxCell>
        <mxCell id="-ADNXhnUNOLjZ2h_mKhe-240" value=" name VARCHAR(200) NOT NULL" style="shape=partialRectangle;overflow=hidden;connectable=0;fillColor=none;top=0;left=0;bottom=0;right=0;align=left;spacingLeft=6;fontSize=16;" vertex="1" parent="-ADNXhnUNOLjZ2h_mKhe-238">
          <mxGeometry x="30" width="276" height="26" as="geometry">
            <mxRectangle width="276" height="26" as="alternateBounds" />
          </mxGeometry>
        </mxCell>
        <mxCell id="-ADNXhnUNOLjZ2h_mKhe-241" style="shape=partialRectangle;collapsible=0;dropTarget=0;pointerEvents=0;fillColor=none;points=[[0,0.5],[1,0.5]];portConstraint=eastwest;top=0;left=0;right=0;bottom=0;fontSize=16;" vertex="1" parent="-ADNXhnUNOLjZ2h_mKhe-228">
          <mxGeometry y="138" width="306" height="26" as="geometry" />
        </mxCell>
        <mxCell id="-ADNXhnUNOLjZ2h_mKhe-242" style="shape=partialRectangle;overflow=hidden;connectable=0;fillColor=none;top=0;left=0;bottom=0;right=0;fontSize=16;" vertex="1" parent="-ADNXhnUNOLjZ2h_mKhe-241">
          <mxGeometry width="30" height="26" as="geometry">
            <mxRectangle width="30" height="26" as="alternateBounds" />
          </mxGeometry>
        </mxCell>
        <mxCell id="-ADNXhnUNOLjZ2h_mKhe-243" value="is_day_off BIT(1) NOT NULL" style="shape=partialRectangle;overflow=hidden;connectable=0;fillColor=none;top=0;left=0;bottom=0;right=0;align=left;spacingLeft=6;fontSize=16;" vertex="1" parent="-ADNXhnUNOLjZ2h_mKhe-241">
          <mxGeometry x="30" width="276" height="26" as="geometry">
            <mxRectangle width="276" height="26" as="alternateBounds" />
          </mxGeometry>
        </mxCell>
        <mxCell id="-ADNXhnUNOLjZ2h_mKhe-244" value="Notification" style="shape=table;startSize=30;container=1;collapsible=1;childLayout=tableLayout;fixedRows=1;rowLines=0;fontStyle=1;align=center;resizeLast=1;fontSize=16;" vertex="1" parent="1">
          <mxGeometry x="923" y="1551" width="294" height="95.61" as="geometry" />
        </mxCell>
        <mxCell id="-ADNXhnUNOLjZ2h_mKhe-245" value="" style="shape=partialRectangle;collapsible=0;dropTarget=0;pointerEvents=0;fillColor=none;points=[[0,0.5],[1,0.5]];portConstraint=eastwest;top=0;left=0;right=0;bottom=1;fontSize=16;" vertex="1" parent="-ADNXhnUNOLjZ2h_mKhe-244">
          <mxGeometry y="30" width="294" height="30" as="geometry" />
        </mxCell>
        <mxCell id="-ADNXhnUNOLjZ2h_mKhe-246" value="PK" style="shape=partialRectangle;overflow=hidden;connectable=0;fillColor=none;top=0;left=0;bottom=0;right=0;fontStyle=1;fontSize=16;" vertex="1" parent="-ADNXhnUNOLjZ2h_mKhe-245">
          <mxGeometry width="30" height="30" as="geometry">
            <mxRectangle width="30" height="30" as="alternateBounds" />
          </mxGeometry>
        </mxCell>
        <mxCell id="-ADNXhnUNOLjZ2h_mKhe-247" value="notification_id int NOT NULL" style="shape=partialRectangle;overflow=hidden;connectable=0;fillColor=none;top=0;left=0;bottom=0;right=0;align=left;spacingLeft=6;fontStyle=5;fontSize=16;" vertex="1" parent="-ADNXhnUNOLjZ2h_mKhe-245">
          <mxGeometry x="30" width="264" height="30" as="geometry">
            <mxRectangle width="264" height="30" as="alternateBounds" />
          </mxGeometry>
        </mxCell>
        <mxCell id="-ADNXhnUNOLjZ2h_mKhe-248" value="" style="shape=partialRectangle;collapsible=0;dropTarget=0;pointerEvents=0;fillColor=none;points=[[0,0.5],[1,0.5]];portConstraint=eastwest;top=0;left=0;right=0;bottom=0;fontSize=16;" vertex="1" parent="-ADNXhnUNOLjZ2h_mKhe-244">
          <mxGeometry y="60" width="294" height="26" as="geometry" />
        </mxCell>
        <mxCell id="-ADNXhnUNOLjZ2h_mKhe-249" value="" style="shape=partialRectangle;overflow=hidden;connectable=0;fillColor=none;top=0;left=0;bottom=0;right=0;fontSize=16;" vertex="1" parent="-ADNXhnUNOLjZ2h_mKhe-248">
          <mxGeometry width="30" height="26" as="geometry">
            <mxRectangle width="30" height="26" as="alternateBounds" />
          </mxGeometry>
        </mxCell>
        <mxCell id="-ADNXhnUNOLjZ2h_mKhe-250" value="text VARCHAR(400) NOT NULL" style="shape=partialRectangle;overflow=hidden;connectable=0;fillColor=none;top=0;left=0;bottom=0;right=0;align=left;spacingLeft=6;fontSize=16;" vertex="1" parent="-ADNXhnUNOLjZ2h_mKhe-248">
          <mxGeometry x="30" width="264" height="26" as="geometry">
            <mxRectangle width="264" height="26" as="alternateBounds" />
          </mxGeometry>
        </mxCell>
        <mxCell id="-ADNXhnUNOLjZ2h_mKhe-251" value="Position" style="shape=table;startSize=30;container=1;collapsible=1;childLayout=tableLayout;fixedRows=1;rowLines=0;fontStyle=1;align=center;resizeLast=1;fontSize=16;" vertex="1" parent="1">
          <mxGeometry x="1207" y="1237" width="315" height="95.61" as="geometry" />
        </mxCell>
        <mxCell id="-ADNXhnUNOLjZ2h_mKhe-252" value="" style="shape=partialRectangle;collapsible=0;dropTarget=0;pointerEvents=0;fillColor=none;points=[[0,0.5],[1,0.5]];portConstraint=eastwest;top=0;left=0;right=0;bottom=1;fontSize=16;" vertex="1" parent="-ADNXhnUNOLjZ2h_mKhe-251">
          <mxGeometry y="30" width="315" height="30" as="geometry" />
        </mxCell>
        <mxCell id="-ADNXhnUNOLjZ2h_mKhe-253" value="PK" style="shape=partialRectangle;overflow=hidden;connectable=0;fillColor=none;top=0;left=0;bottom=0;right=0;fontStyle=1;fontSize=16;" vertex="1" parent="-ADNXhnUNOLjZ2h_mKhe-252">
          <mxGeometry width="30" height="30" as="geometry">
            <mxRectangle width="30" height="30" as="alternateBounds" />
          </mxGeometry>
        </mxCell>
        <mxCell id="-ADNXhnUNOLjZ2h_mKhe-254" value="position_id int NOT NULL" style="shape=partialRectangle;overflow=hidden;connectable=0;fillColor=none;top=0;left=0;bottom=0;right=0;align=left;spacingLeft=6;fontStyle=5;fontSize=16;" vertex="1" parent="-ADNXhnUNOLjZ2h_mKhe-252">
          <mxGeometry x="30" width="285" height="30" as="geometry">
            <mxRectangle width="285" height="30" as="alternateBounds" />
          </mxGeometry>
        </mxCell>
        <mxCell id="-ADNXhnUNOLjZ2h_mKhe-255" value="" style="shape=partialRectangle;collapsible=0;dropTarget=0;pointerEvents=0;fillColor=none;points=[[0,0.5],[1,0.5]];portConstraint=eastwest;top=0;left=0;right=0;bottom=0;fontSize=16;" vertex="1" parent="-ADNXhnUNOLjZ2h_mKhe-251">
          <mxGeometry y="60" width="315" height="26" as="geometry" />
        </mxCell>
        <mxCell id="-ADNXhnUNOLjZ2h_mKhe-256" value="" style="shape=partialRectangle;overflow=hidden;connectable=0;fillColor=none;top=0;left=0;bottom=0;right=0;fontSize=16;" vertex="1" parent="-ADNXhnUNOLjZ2h_mKhe-255">
          <mxGeometry width="30" height="26" as="geometry">
            <mxRectangle width="30" height="26" as="alternateBounds" />
          </mxGeometry>
        </mxCell>
        <mxCell id="-ADNXhnUNOLjZ2h_mKhe-257" value="name VARCHAR(100) NOT NULL" style="shape=partialRectangle;overflow=hidden;connectable=0;fillColor=none;top=0;left=0;bottom=0;right=0;align=left;spacingLeft=6;fontSize=16;" vertex="1" parent="-ADNXhnUNOLjZ2h_mKhe-255">
          <mxGeometry x="30" width="285" height="26" as="geometry">
            <mxRectangle width="285" height="26" as="alternateBounds" />
          </mxGeometry>
        </mxCell>
        <mxCell id="-ADNXhnUNOLjZ2h_mKhe-258" value="" style="edgeStyle=orthogonalEdgeStyle;endArrow=ERzeroToMany;startArrow=ERzeroToOne;endFill=1;startFill=0;exitX=1;exitY=0.5;exitDx=0;exitDy=0;rounded=0;strokeWidth=1;sourcePerimeterSpacing=6;startSize=8;endSize=8;entryX=0;entryY=0.5;entryDx=0;entryDy=0;" edge="1" parent="1" source="-ADNXhnUNOLjZ2h_mKhe-100" target="-ADNXhnUNOLjZ2h_mKhe-32">
          <mxGeometry width="100" height="100" relative="1" as="geometry">
            <mxPoint x="1069" y="488" as="sourcePoint" />
            <mxPoint x="1183" y="456" as="targetPoint" />
          </mxGeometry>
        </mxCell>
        <mxCell id="-ADNXhnUNOLjZ2h_mKhe-259" value="" style="edgeStyle=orthogonalEdgeStyle;endArrow=ERzeroToMany;startArrow=ERmandOne;endFill=1;startFill=0;exitX=1;exitY=0.5;exitDx=0;exitDy=0;entryX=1;entryY=0.5;entryDx=0;entryDy=0;rounded=0;strokeWidth=1;sourcePerimeterSpacing=6;endSize=8;startSize=8;" edge="1" parent="1" source="-ADNXhnUNOLjZ2h_mKhe-66" target="-ADNXhnUNOLjZ2h_mKhe-103">
          <mxGeometry width="100" height="100" relative="1" as="geometry">
            <mxPoint x="1136" y="772" as="sourcePoint" />
            <mxPoint x="1091" y="707" as="targetPoint" />
          </mxGeometry>
        </mxCell>
        <mxCell id="-ADNXhnUNOLjZ2h_mKhe-260" value="" style="edgeStyle=orthogonalEdgeStyle;endArrow=ERzeroToMany;startArrow=ERzeroToOne;endFill=1;startFill=0;exitX=0;exitY=0.5;exitDx=0;exitDy=0;entryX=1;entryY=0.5;entryDx=0;entryDy=0;rounded=0;strokeWidth=1;sourcePerimeterSpacing=6;endSize=8;startSize=8;" edge="1" parent="1" source="-ADNXhnUNOLjZ2h_mKhe-110" target="-ADNXhnUNOLjZ2h_mKhe-41">
          <mxGeometry width="100" height="100" relative="1" as="geometry">
            <mxPoint x="1541" y="671" as="sourcePoint" />
            <mxPoint x="1459" y="671" as="targetPoint" />
            <Array as="points">
              <mxPoint x="1521" y="571" />
              <mxPoint x="1521" y="692" />
            </Array>
          </mxGeometry>
        </mxCell>
        <mxCell id="-ADNXhnUNOLjZ2h_mKhe-261" value="" style="edgeStyle=orthogonalEdgeStyle;endArrow=ERzeroToMany;startArrow=ERmandOne;endFill=1;startFill=0;exitX=0;exitY=0.5;exitDx=0;exitDy=0;entryX=1;entryY=0.5;entryDx=0;entryDy=0;rounded=0;strokeWidth=1;sourcePerimeterSpacing=6;endSize=8;startSize=8;" edge="1" parent="1" source="-ADNXhnUNOLjZ2h_mKhe-66" target="-ADNXhnUNOLjZ2h_mKhe-120">
          <mxGeometry width="100" height="100" relative="1" as="geometry">
            <mxPoint x="639" y="1178" as="sourcePoint" />
            <mxPoint x="366" y="1265" as="targetPoint" />
            <Array as="points">
              <mxPoint x="455" y="1014" />
              <mxPoint x="455" y="1111" />
            </Array>
          </mxGeometry>
        </mxCell>
        <mxCell id="-ADNXhnUNOLjZ2h_mKhe-263" value="" style="edgeStyle=orthogonalEdgeStyle;endArrow=ERmandOne;startArrow=ERoneToMany;endFill=0;startFill=0;rounded=0;strokeWidth=1;sourcePerimeterSpacing=6;endSize=8;startSize=8;exitX=0;exitY=0.5;exitDx=0;exitDy=0;entryX=1;entryY=0.5;entryDx=0;entryDy=0;" edge="1" parent="1" source="-ADNXhnUNOLjZ2h_mKhe-72" target="-ADNXhnUNOLjZ2h_mKhe-152">
          <mxGeometry width="100" height="100" relative="1" as="geometry">
            <mxPoint x="1151" y="1314" as="sourcePoint" />
            <mxPoint x="1047" y="1376" as="targetPoint" />
            <Array as="points">
              <mxPoint x="588" y="1066" />
              <mxPoint x="588" y="1386" />
            </Array>
          </mxGeometry>
        </mxCell>
        <mxCell id="-ADNXhnUNOLjZ2h_mKhe-264" value="" style="edgeStyle=orthogonalEdgeStyle;endArrow=ERmandOne;startArrow=ERoneToMany;endFill=0;startFill=0;rounded=0;strokeWidth=1;sourcePerimeterSpacing=6;endSize=8;startSize=8;entryX=0;entryY=0.5;entryDx=0;entryDy=0;exitX=1;exitY=0.5;exitDx=0;exitDy=0;" edge="1" parent="1" source="-ADNXhnUNOLjZ2h_mKhe-75" target="-ADNXhnUNOLjZ2h_mKhe-210">
          <mxGeometry width="100" height="100" relative="1" as="geometry">
            <mxPoint x="987" y="1099" as="sourcePoint" />
            <mxPoint x="1088" y="1315" as="targetPoint" />
            <Array as="points">
              <mxPoint x="979" y="1091" />
              <mxPoint x="979" y="1305" />
              <mxPoint x="1175" y="1305" />
              <mxPoint x="1175" y="1399" />
              <mxPoint x="1192" y="1399" />
            </Array>
          </mxGeometry>
        </mxCell>
        <mxCell id="-ADNXhnUNOLjZ2h_mKhe-265" value="" style="edgeStyle=orthogonalEdgeStyle;endArrow=ERmandOne;startArrow=ERzeroToMany;endFill=0;startFill=0;exitX=1;exitY=0.5;exitDx=0;exitDy=0;entryX=0;entryY=0.5;entryDx=0;entryDy=0;rounded=0;strokeWidth=1;sourcePerimeterSpacing=6;endSize=8;startSize=8;" edge="1" parent="1" target="-ADNXhnUNOLjZ2h_mKhe-252" source="-ADNXhnUNOLjZ2h_mKhe-69">
          <mxGeometry width="100" height="100" relative="1" as="geometry">
            <mxPoint x="941" y="1039.9999999999998" as="sourcePoint" />
            <mxPoint x="1239" y="1385" as="targetPoint" />
            <Array as="points">
              <mxPoint x="997" y="1040" />
              <mxPoint x="1194" y="1040" />
              <mxPoint x="1194" y="1282" />
            </Array>
          </mxGeometry>
        </mxCell>
        <mxCell id="-ADNXhnUNOLjZ2h_mKhe-267" value="" style="edgeStyle=orthogonalEdgeStyle;endArrow=ERzeroToMany;startArrow=ERmandOne;endFill=1;startFill=0;exitX=1;exitY=0.5;exitDx=0;exitDy=0;entryX=0;entryY=0.5;entryDx=0;entryDy=0;rounded=0;strokeWidth=1;sourcePerimeterSpacing=6;endSize=8;startSize=8;" edge="1" parent="1" source="-ADNXhnUNOLjZ2h_mKhe-66" target="-ADNXhnUNOLjZ2h_mKhe-162">
          <mxGeometry width="100" height="100" relative="1" as="geometry">
            <mxPoint x="1157" y="1002" as="sourcePoint" />
            <mxPoint x="1287" y="987" as="targetPoint" />
            <Array as="points">
              <mxPoint x="1242" y="1014" />
              <mxPoint x="1242" y="1048" />
            </Array>
          </mxGeometry>
        </mxCell>
        <mxCell id="-ADNXhnUNOLjZ2h_mKhe-268" value="" style="edgeStyle=orthogonalEdgeStyle;endArrow=ERmandOne;startArrow=ERoneToMany;endFill=0;startFill=0;rounded=0;strokeWidth=1;sourcePerimeterSpacing=6;endSize=8;startSize=8;exitX=0;exitY=0.5;exitDx=0;exitDy=0;entryX=1;entryY=0.5;entryDx=0;entryDy=0;" edge="1" parent="1" source="-ADNXhnUNOLjZ2h_mKhe-181" target="-ADNXhnUNOLjZ2h_mKhe-159">
          <mxGeometry width="100" height="100" relative="1" as="geometry">
            <mxPoint x="1657" y="1258" as="sourcePoint" />
            <mxPoint x="1603" y="1258" as="targetPoint" />
            <Array as="points">
              <mxPoint x="1657" y="1017" />
            </Array>
          </mxGeometry>
        </mxCell>
        <mxCell id="-ADNXhnUNOLjZ2h_mKhe-269" value="" style="edgeStyle=orthogonalEdgeStyle;endArrow=ERmandOne;startArrow=ERzeroToMany;endFill=0;startFill=0;exitX=1;exitY=0.5;exitDx=0;exitDy=0;entryX=0;entryY=0.5;entryDx=0;entryDy=0;rounded=0;strokeWidth=1;sourcePerimeterSpacing=6;endSize=8;startSize=8;" edge="1" parent="1" source="-ADNXhnUNOLjZ2h_mKhe-187" target="-ADNXhnUNOLjZ2h_mKhe-200">
          <mxGeometry width="100" height="100" relative="1" as="geometry">
            <mxPoint x="1953" y="1109" as="sourcePoint" />
            <mxPoint x="2007" y="1109" as="targetPoint" />
            <Array as="points">
              <mxPoint x="1979" y="1067" />
              <mxPoint x="1979" y="984" />
            </Array>
          </mxGeometry>
        </mxCell>
        <mxCell id="-ADNXhnUNOLjZ2h_mKhe-270" value="" style="edgeStyle=orthogonalEdgeStyle;endArrow=ERzeroToOne;startArrow=ERzeroToMany;endFill=0;startFill=0;exitX=0;exitY=0.5;exitDx=0;exitDy=0;entryX=1;entryY=0.5;entryDx=0;entryDy=0;rounded=0;strokeWidth=1;sourcePerimeterSpacing=6;endSize=8;startSize=8;" edge="1" parent="1" source="-ADNXhnUNOLjZ2h_mKhe-184" target="-ADNXhnUNOLjZ2h_mKhe-53">
          <mxGeometry width="100" height="100" relative="1" as="geometry">
            <mxPoint x="1801" y="842" as="sourcePoint" />
            <mxPoint x="1506" y="790" as="targetPoint" />
            <Array as="points">
              <mxPoint x="1644" y="1044" />
              <mxPoint x="1644" y="813" />
            </Array>
          </mxGeometry>
        </mxCell>
        <mxCell id="-ADNXhnUNOLjZ2h_mKhe-271" value="" style="edgeStyle=orthogonalEdgeStyle;endArrow=ERzeroToMany;startArrow=ERzeroToOne;endFill=1;startFill=0;exitX=0.75;exitY=0;exitDx=0;exitDy=0;entryX=0;entryY=0.5;entryDx=0;entryDy=0;rounded=0;strokeWidth=1;sourcePerimeterSpacing=6;endSize=8;startSize=8;" edge="1" parent="1" source="-ADNXhnUNOLjZ2h_mKhe-65" target="-ADNXhnUNOLjZ2h_mKhe-35">
          <mxGeometry width="100" height="100" relative="1" as="geometry">
            <mxPoint x="1077" y="930" as="sourcePoint" />
            <mxPoint x="1116" y="848" as="targetPoint" />
            <Array as="points">
              <mxPoint x="878" y="800" />
              <mxPoint x="1122" y="800" />
              <mxPoint x="1122" y="631" />
            </Array>
          </mxGeometry>
        </mxCell>
        <mxCell id="-ADNXhnUNOLjZ2h_mKhe-272" value="User_BusinessTrip" style="shape=table;startSize=30;container=1;collapsible=1;childLayout=tableLayout;fixedRows=1;rowLines=0;fontStyle=1;align=center;resizeLast=1;fontSize=16;" vertex="1" parent="1">
          <mxGeometry x="650" y="1419" width="280" height="99.38" as="geometry" />
        </mxCell>
        <mxCell id="-ADNXhnUNOLjZ2h_mKhe-288" style="shape=partialRectangle;collapsible=0;dropTarget=0;pointerEvents=0;fillColor=none;points=[[0,0.5],[1,0.5]];portConstraint=eastwest;top=0;left=0;right=0;bottom=1;fontSize=16;" vertex="1" parent="-ADNXhnUNOLjZ2h_mKhe-272">
          <mxGeometry y="30" width="280" height="30" as="geometry" />
        </mxCell>
        <mxCell id="-ADNXhnUNOLjZ2h_mKhe-289" value="PK" style="shape=partialRectangle;overflow=hidden;connectable=0;fillColor=none;top=0;left=0;bottom=0;right=0;fontStyle=1;fontSize=16;" vertex="1" parent="-ADNXhnUNOLjZ2h_mKhe-288">
          <mxGeometry width="30" height="30" as="geometry">
            <mxRectangle width="30" height="30" as="alternateBounds" />
          </mxGeometry>
        </mxCell>
        <mxCell id="-ADNXhnUNOLjZ2h_mKhe-290" value="user_id int NOT NULL" style="shape=partialRectangle;overflow=hidden;connectable=0;fillColor=none;top=0;left=0;bottom=0;right=0;align=left;spacingLeft=6;fontStyle=5;fontSize=16;" vertex="1" parent="-ADNXhnUNOLjZ2h_mKhe-288">
          <mxGeometry x="30" width="250" height="30" as="geometry">
            <mxRectangle width="250" height="30" as="alternateBounds" />
          </mxGeometry>
        </mxCell>
        <mxCell id="-ADNXhnUNOLjZ2h_mKhe-295" style="shape=partialRectangle;collapsible=0;dropTarget=0;pointerEvents=0;fillColor=none;points=[[0,0.5],[1,0.5]];portConstraint=eastwest;top=0;left=0;right=0;bottom=1;fontSize=16;" vertex="1" parent="-ADNXhnUNOLjZ2h_mKhe-272">
          <mxGeometry y="60" width="280" height="30" as="geometry" />
        </mxCell>
        <mxCell id="-ADNXhnUNOLjZ2h_mKhe-296" value="PK" style="shape=partialRectangle;overflow=hidden;connectable=0;fillColor=none;top=0;left=0;bottom=0;right=0;fontStyle=1;fontSize=16;" vertex="1" parent="-ADNXhnUNOLjZ2h_mKhe-295">
          <mxGeometry width="30" height="30" as="geometry">
            <mxRectangle width="30" height="30" as="alternateBounds" />
          </mxGeometry>
        </mxCell>
        <mxCell id="-ADNXhnUNOLjZ2h_mKhe-297" value="business_trip_id  int NOT NULL" style="shape=partialRectangle;overflow=hidden;connectable=0;fillColor=none;top=0;left=0;bottom=0;right=0;align=left;spacingLeft=6;fontStyle=5;fontSize=16;" vertex="1" parent="-ADNXhnUNOLjZ2h_mKhe-295">
          <mxGeometry x="30" width="250" height="30" as="geometry">
            <mxRectangle width="250" height="30" as="alternateBounds" />
          </mxGeometry>
        </mxCell>
        <mxCell id="-ADNXhnUNOLjZ2h_mKhe-291" value="" style="edgeStyle=orthogonalEdgeStyle;endArrow=ERmandOne;startArrow=ERoneToMany;endFill=0;startFill=0;entryX=0;entryY=0.5;entryDx=0;entryDy=0;rounded=0;strokeWidth=1;sourcePerimeterSpacing=6;endSize=8;startSize=8;" edge="1" parent="1" target="-ADNXhnUNOLjZ2h_mKhe-288">
          <mxGeometry width="100" height="100" relative="1" as="geometry">
            <mxPoint x="747" y="1280" as="sourcePoint" />
            <mxPoint x="955" y="1913" as="targetPoint" />
            <Array as="points">
              <mxPoint x="747" y="1374" />
              <mxPoint x="610" y="1374" />
              <mxPoint x="610" y="1463" />
            </Array>
          </mxGeometry>
        </mxCell>
        <mxCell id="-ADNXhnUNOLjZ2h_mKhe-298" value="" style="edgeStyle=orthogonalEdgeStyle;endArrow=ERzeroToMany;startArrow=ERmandOne;endFill=1;startFill=0;exitX=0;exitY=0.5;exitDx=0;exitDy=0;rounded=0;strokeWidth=1;sourcePerimeterSpacing=6;endSize=8;startSize=8;entryX=0.5;entryY=0;entryDx=0;entryDy=0;" edge="1" parent="1" source="-ADNXhnUNOLjZ2h_mKhe-295" target="-ADNXhnUNOLjZ2h_mKhe-135">
          <mxGeometry width="100" height="100" relative="1" as="geometry">
            <mxPoint x="449" y="1501" as="sourcePoint" />
            <mxPoint x="375" y="1571" as="targetPoint" />
            <Array as="points">
              <mxPoint x="620" y="1493" />
              <mxPoint x="620" y="1501" />
              <mxPoint x="619" y="1564" />
            </Array>
          </mxGeometry>
        </mxCell>
        <mxCell id="-ADNXhnUNOLjZ2h_mKhe-299" value="User_Notification" style="shape=table;startSize=30;container=1;collapsible=1;childLayout=tableLayout;fixedRows=1;rowLines=0;fontStyle=1;align=center;resizeLast=1;fontSize=16;" vertex="1" parent="1">
          <mxGeometry x="967" y="1433" width="265" height="99.38" as="geometry" />
        </mxCell>
        <mxCell id="-ADNXhnUNOLjZ2h_mKhe-300" style="shape=partialRectangle;collapsible=0;dropTarget=0;pointerEvents=0;fillColor=none;points=[[0,0.5],[1,0.5]];portConstraint=eastwest;top=0;left=0;right=0;bottom=1;fontSize=16;" vertex="1" parent="-ADNXhnUNOLjZ2h_mKhe-299">
          <mxGeometry y="30" width="265" height="30" as="geometry" />
        </mxCell>
        <mxCell id="-ADNXhnUNOLjZ2h_mKhe-301" value="PK" style="shape=partialRectangle;overflow=hidden;connectable=0;fillColor=none;top=0;left=0;bottom=0;right=0;fontStyle=1;fontSize=16;" vertex="1" parent="-ADNXhnUNOLjZ2h_mKhe-300">
          <mxGeometry width="30" height="30" as="geometry">
            <mxRectangle width="30" height="30" as="alternateBounds" />
          </mxGeometry>
        </mxCell>
        <mxCell id="-ADNXhnUNOLjZ2h_mKhe-302" value="user_id int NOT NULL" style="shape=partialRectangle;overflow=hidden;connectable=0;fillColor=none;top=0;left=0;bottom=0;right=0;align=left;spacingLeft=6;fontStyle=5;fontSize=16;" vertex="1" parent="-ADNXhnUNOLjZ2h_mKhe-300">
          <mxGeometry x="30" width="235" height="30" as="geometry">
            <mxRectangle width="235" height="30" as="alternateBounds" />
          </mxGeometry>
        </mxCell>
        <mxCell id="-ADNXhnUNOLjZ2h_mKhe-303" style="shape=partialRectangle;collapsible=0;dropTarget=0;pointerEvents=0;fillColor=none;points=[[0,0.5],[1,0.5]];portConstraint=eastwest;top=0;left=0;right=0;bottom=1;fontSize=16;" vertex="1" parent="-ADNXhnUNOLjZ2h_mKhe-299">
          <mxGeometry y="60" width="265" height="30" as="geometry" />
        </mxCell>
        <mxCell id="-ADNXhnUNOLjZ2h_mKhe-304" value="PK" style="shape=partialRectangle;overflow=hidden;connectable=0;fillColor=none;top=0;left=0;bottom=0;right=0;fontStyle=1;fontSize=16;" vertex="1" parent="-ADNXhnUNOLjZ2h_mKhe-303">
          <mxGeometry width="30" height="30" as="geometry">
            <mxRectangle width="30" height="30" as="alternateBounds" />
          </mxGeometry>
        </mxCell>
        <mxCell id="-ADNXhnUNOLjZ2h_mKhe-305" value="notification_id int NOT NULL" style="shape=partialRectangle;overflow=hidden;connectable=0;fillColor=none;top=0;left=0;bottom=0;right=0;align=left;spacingLeft=6;fontStyle=5;fontSize=16;" vertex="1" parent="-ADNXhnUNOLjZ2h_mKhe-303">
          <mxGeometry x="30" width="235" height="30" as="geometry">
            <mxRectangle width="235" height="30" as="alternateBounds" />
          </mxGeometry>
        </mxCell>
        <mxCell id="-ADNXhnUNOLjZ2h_mKhe-306" value="" style="edgeStyle=orthogonalEdgeStyle;endArrow=ERoneToMany;startArrow=ERmandOne;endFill=0;startFill=0;exitX=0;exitY=0.5;exitDx=0;exitDy=0;entryX=0.75;entryY=1;entryDx=0;entryDy=0;rounded=0;strokeWidth=1;sourcePerimeterSpacing=6;endSize=8;startSize=8;" edge="1" parent="1" source="-ADNXhnUNOLjZ2h_mKhe-300" target="-ADNXhnUNOLjZ2h_mKhe-65">
          <mxGeometry width="100" height="100" relative="1" as="geometry">
            <mxPoint x="1429" y="1851" as="sourcePoint" />
            <mxPoint x="1331" y="1629" as="targetPoint" />
            <Array as="points">
              <mxPoint x="938" y="1478" />
              <mxPoint x="938" y="1309" />
              <mxPoint x="879" y="1309" />
            </Array>
          </mxGeometry>
        </mxCell>
        <mxCell id="-ADNXhnUNOLjZ2h_mKhe-307" value="" style="edgeStyle=orthogonalEdgeStyle;endArrow=ERmandOne;startArrow=ERzeroToMany;endFill=0;startFill=0;exitX=1;exitY=0.5;exitDx=0;exitDy=0;entryX=1;entryY=0.5;entryDx=0;entryDy=0;rounded=0;strokeWidth=1;sourcePerimeterSpacing=6;endSize=8;startSize=8;" edge="1" parent="1" source="-ADNXhnUNOLjZ2h_mKhe-245" target="-ADNXhnUNOLjZ2h_mKhe-303">
          <mxGeometry width="100" height="100" relative="1" as="geometry">
            <mxPoint x="1555" y="1845" as="sourcePoint" />
            <mxPoint x="1457" y="1623" as="targetPoint" />
          </mxGeometry>
        </mxCell>
      </root>
    </mxGraphModel>
  </diagram>
</mxfile>
